<svg xmlns="http://www.w3.org/2000/svg" width="100" height="100" viewBox="0 0 100 100">
    <g fill="none" fill-rule="evenodd" stroke="#666" stroke-linejoin="round" stroke-width="3">
        <path stroke-linecap="round" d="M38.979 44.698a5.337 5.337 0 0 0 0-7.541L33.32 31.5a5.332 5.332 0 0 0-7.541 0l-3.104 3.101a7.983 7.983 0 0 0-1.008 10.064c9.016 13.632 21.037 25.653 34.666 34.667a7.995 7.995 0 0 0 10.064-1.01L69.5 75.22a5.323 5.323 0 0 0 0-7.542l-5.654-5.656a5.335 5.335 0 0 0-7.544 0l-1.885 1.886a126.617 126.617 0 0 1-17.323-17.326l1.886-1.885z"/>
        <path d="M68.333 36.667v-4c-18.667 0-18.494 14.178-18.494 14.178S47 23.333 68.333 23.333v-4l11.506 8.512-11.506 8.822z"/>
    </g>
</svg>
