<?xml version="1.0" encoding="UTF-8"?>
<svg width="58px" height="27px" viewBox="0 0 58 27" version="1.1" xmlns="http://www.w3.org/2000/svg" xmlns:xlink="http://www.w3.org/1999/xlink">
    <!-- Generator: Sketch 49.1 (51147) - http://www.bohemiancoding.com/sketch -->
    <title>cnn</title>
    <desc>Created with Sketch.</desc>
    <defs></defs>
    <g id="---Homepage-Refresh" stroke="none" stroke-width="1" fill="none" fill-rule="evenodd" opacity="0.3">
        <g id="Desktop:-Homepage-Refresh---hero-options" transform="translate(-901.000000, -5972.000000)" fill="#000000" fill-rule="nonzero">
            <g id="cnn" transform="translate(901.000000, 5972.000000)">
                <path d="M18.3684575,0.012171183 C18.3684575,1.19793685e-18 13.3773248,0.012171183 13.3773248,0.012171183 C5.98934215,0.012171183 0,6.05071806 0,13.4993958 C0,20.9480735 5.98934215,26.9866203 13.3773248,26.9866203 L22.7618118,26.9786788 C25.1194491,26.9786788 27.030679,25.0667673 27.030679,22.6896748 L27.0356447,14.4635088 L33.5220796,24.7783707 C34.3993121,26.1169418 35.9051451,27 37.615603,27 C40.3233284,27 42.5185501,24.7868301 42.5185501,22.0567733 L42.5170946,14.4634225 L49.0035295,24.7782843 C49.880762,26.1168555 51.386595,26.9999137 53.0970529,26.9999137 C55.8047783,26.9999137 58,24.7867437 58,22.056687 L57.9985445,0 L54.6610199,0 L54.6610199,22.0569459 C54.6610199,22.9277466 53.9608435,23.6336752 53.0971385,23.6336752 C52.5573228,23.6336752 52.0813775,23.358054 51.8003823,22.9385366 L40.2551772,4.6037284 C40.1083296,4.38837154 39.8395487,4.29445154 39.5920128,4.37199906 C39.3444768,4.44954657 39.1758214,4.68050561 39.1758885,4.9418456 L39.17957,22.0570322 C39.17957,22.9278329 38.4793936,23.6337615 37.6156886,23.6337615 C37.075873,23.6337615 36.6000133,23.3581403 36.3189324,22.938623 L24.7737274,4.6037284 C24.6268423,4.38841384 24.3580751,4.29452712 24.1105502,4.37206502 C23.8630253,4.44960292 23.6943521,4.68051912 23.694353,4.9418456 L23.6917845,22.6898474 C23.6917845,23.2076838 23.2755143,23.6272875 22.7618975,23.6272875 L13.3774104,23.6202092 C7.83344823,23.6201229 3.33906574,19.0888173 3.33906574,13.4993958 C3.33906574,7.90997417 7.83344823,3.3785823 13.3773248,3.3785823 L18.3684575,3.37487052 L18.3684575,0.012171183 Z" id="Shape"></path>
                <path d="M19.48192,18.7253699 C19.7425005,18.7253699 19.9537428,18.5170999 19.9537428,18.2601859 L19.9550171,4.79631928 C19.9549322,2.14751814 22.1330139,0 24.8197026,0 C26.5229032,0 28.0217945,0.863027571 28.8908524,2.16971363 L35.3045508,12.0893378 L35.3161043,4.79640304 C35.3161043,2.14751814 37.494101,0 40.1808747,0 C41.8840753,0 43.3828817,0.863027571 44.2520245,2.16971363 L50.665638,12.0893378 L50.665638,0.00142386148 L54,0.00142386148 L53.9940534,21.4032345 C53.9939803,21.6523754 53.8322453,21.8735289 53.5925106,21.9522971 C53.3527759,22.0310652 53.0888139,21.9497803 52.9371668,21.7504892 L41.4675562,3.94099731 C41.188744,3.53410795 40.7164964,3.26650575 40.1808747,3.26650575 C39.32388,3.26650575 38.6291434,3.95146688 38.6291434,4.79640304 L38.6328812,21.4032345 C38.6327473,21.6523652 38.4709939,21.8734822 38.231267,21.9522415 C37.9915401,22.0310007 37.7275896,21.9497434 37.5759097,21.7504892 L26.106469,3.94099731 C25.8275719,3.53410795 25.3554093,3.26650575 24.8197026,3.26650575 C23.9627928,3.26650575 23.2680562,3.95146688 23.2680562,4.79640304 L23.2750222,21.5348161 C23.2750222,21.7917301 23.06378,22 22.8031994,22 L13.9957264,21.9982411 C9.02756949,21.9982411 5,17.9981117 5,13.0999444 C5,8.20169341 9.02756949,4.20148021 13.9957264,4.20148021 C13.9957264,4.20148021 18.9480823,4.18246747 18.9480823,4.20148021 L18.9480823,7.50090229 L13.9957264,7.497217 C10.8573484,7.497217 8.31312403,10.0056421 8.31312403,13.0999444 C8.31312403,16.1940792 10.8573484,18.7317354 13.9957264,18.7317354 L19.48192,18.7253699 Z" id="Shape"></path>
            </g>
        </g>
    </g>
</svg>