<?xml version="1.0" encoding="UTF-8"?>
<svg width="96px" height="25px" viewBox="0 0 96 25" version="1.1" xmlns="http://www.w3.org/2000/svg" xmlns:xlink="http://www.w3.org/1999/xlink">
    <!-- Generator: Sketch 49.1 (51147) - http://www.bohemiancoding.com/sketch -->
    <title>forbes</title>
    <desc>Created with Sketch.</desc>
    <defs></defs>
    <g id="---Homepage-Refresh" stroke="none" stroke-width="1" fill="none" fill-rule="evenodd" opacity="0.3">
        <g id="Desktop:-Homepage-Refresh---hero-options" transform="translate(-631.000000, -5962.000000)" fill="#000000" fill-rule="nonzero">
            <g id="forbes" transform="translate(631.000000, 5962.000000)">
                <path d="M27.4150759,24.6728641 C26.9770936,24.774997 26.508519,24.8164863 25.5809212,24.8348799 C24.8957779,24.8485714 24.2572152,24.8453214 24.1620468,24.8276193 C23.0499261,24.6211408 22.7438645,24.5501249 22.3278921,24.4022155 C21.1514721,23.9842107 20.3310859,23.4573656 19.4883437,22.579106 C17.9597661,20.9861239 17.1714948,18.7123713 17.1714948,15.895731 C17.1714948,13.1806704 18.0439296,10.8672955 19.6932845,9.20903687 C21.2330055,7.66086319 23.2343106,6.89109815 25.7193479,6.89109815 C28.0636745,6.89109815 29.8772729,7.54068248 31.3164268,8.89579257 C33.0893276,10.5651842 34.0061974,13.1543247 33.900024,16.191619 C33.792328,19.2726153 32.6260132,21.7079687 30.4973556,23.2962488 C29.6222907,23.9492214 28.6431982,24.3863804 27.4150759,24.6728641 Z M26.2936114,23.5884027 C26.783919,23.4429135 27.3885672,22.8763769 27.7110323,22.2603989 C28.3766574,20.9888207 28.6739289,19.1083867 28.6813348,16.1224701 C28.6905401,12.3804107 28.1033338,9.99920082 26.8639989,8.75244699 C26.3435835,8.22885187 25.9745377,8.06628292 25.3091202,8.06732015 C23.8323142,8.06967121 22.8950265,9.60996192 22.5247349,12.6428306 C22.3545392,14.0370098 22.3536394,17.3582984 22.523143,18.5771853 C23.047642,22.3495318 24.4020788,24.1495456 26.2936114,23.5884027 Z M57.4191477,24.765247 C55.7342862,25.0177095 53.0402936,24.818215 50.3376493,24.2408221 L49.6239209,24.0883489 L49.6772844,22.7676058 C49.7674003,20.5402521 49.7464978,5.45045094 49.6520908,4.57461156 C49.5336667,3.47542138 49.3530889,2.94878371 48.9535201,2.5363108 C48.6273174,2.19962503 48.4711028,2.13089107 47.5936155,1.93803492 C47.3384949,1.8819552 47.3186307,1.86010416 47.303473,1.61884381 C47.2899071,1.4022696 47.3121246,1.3540037 47.4389928,1.32426969 C47.5224641,1.30476972 49.0234256,1.02381793 50.7745934,0.699993845 C52.5256921,0.376169763 54.0833393,0.0861594715 54.2360933,0.0555956783 L54.5137774,0 L54.4877531,4.03331433 C54.4650512,7.5545814 54.474741,8.06662866 54.5638879,8.06662866 C54.6200199,8.06662866 54.9364635,7.94001711 55.2669574,7.78526198 C56.5932243,7.16430527 58.3376093,6.94365128 59.6933611,7.22536371 C61.5007994,7.60091113 63.0925689,8.87622344 64.0232812,10.6942851 C64.7102933,12.036326 64.9809869,13.1180907 65.0442479,14.7740675 C65.1671017,17.9905955 64.2577762,20.6004116 62.3699119,22.4495902 C61.0638553,23.728844 59.5216427,24.450274 57.4191477,24.765247 Z M56.2825254,23.5550038 C56.7853607,23.4596475 57.1759318,23.2597382 57.5953649,22.8829461 C58.6465086,21.9389259 59.4367871,19.9896197 59.7476244,17.5745269 C59.8742156,16.5908844 59.8571892,14.3494935 59.7168936,13.5284892 C59.3373966,11.3080503 58.5217861,9.84866377 57.3320772,9.26103681 C56.8385858,9.0172871 56.7625203,9.00013819 56.1770442,9.00013819 C55.7583725,9.00013819 55.3982552,9.04487749 55.091986,9.1350476 L54.6335857,9.26995701 L54.5998096,11.7972785 C54.5564128,15.0346895 54.6618248,23.1396958 54.7503487,23.3722434 C54.8067576,23.5206368 54.8689805,23.5521687 55.1492255,23.574158 C55.8087598,23.6259505 55.9178401,23.6240143 56.2825254,23.5550038 Z M73.4074397,24.8958692 C69.9736944,24.2771944 67.5180035,21.8443994 66.7156127,18.2666378 C66.6124156,17.8065213 66.5668039,17.2915006 66.5409181,16.2953422 C66.4999438,14.7193707 66.6282654,13.7411219 67.0353786,12.5256233 C67.8170745,10.1918495 69.2179535,8.53808555 71.2529654,7.54690588 C73.4008644,6.50075287 76.3374499,6.43222636 78.2383263,7.38392203 C80.3785426,8.45545267 81.637811,10.5949873 81.9573,13.7022602 C82.0003507,14.1206799 82.0251983,14.6184825 82.0127399,14.8086419 L81.9899687,15.1543862 L76.8681782,15.1720883 L71.7463876,15.1898595 L71.7658366,15.7944279 C71.8111022,17.1949688 72.1124572,18.4338397 72.6699711,19.5107639 C72.9233613,20.0003378 73.1250491,20.2671832 73.6150798,20.7613901 C74.7219403,21.8780058 75.8231253,22.3101861 77.5602428,22.3101861 C78.8197188,22.3101861 79.7254451,22.0591066 80.6727687,21.4472776 C80.9380636,21.2758576 81.2069576,21.1356928 81.2701495,21.1356928 C81.4147362,21.1356928 81.7476526,21.5637934 81.7476526,21.7498038 C81.7476526,22.054612 80.754579,23.037148 79.7860068,23.6908121 C78.9927522,24.2261626 77.7346605,24.7110343 76.6437884,24.9016086 C75.879811,25.0352733 74.1635267,25.0321616 73.4074397,24.8958692 Z M75.5806015,13.6247444 L76.784776,13.5829093 L76.7413792,12.7282986 C76.5885561,9.71486074 75.8503953,8.06801164 74.6532114,8.06939462 C73.352069,8.07084674 72.3122763,9.74203623 71.8799695,12.5267989 C71.8268136,12.8690857 71.7827939,13.2749895 71.7821017,13.4288457 L71.7808559,13.7085528 L73.0786069,13.6876007 C73.7924045,13.6759145 74.9182987,13.6477018 75.5806015,13.6247444 Z M90.5377526,24.7691885 C93.4783524,24.3231092 95.377014,22.7476909 95.8750043,20.3405502 C96.1155209,19.1782271 96.003326,17.8857659 95.5867998,17.0214052 C95.0037462,15.8113003 94.0178708,15.0808118 91.5759533,14.0493875 C89.762355,13.2833565 88.6752204,12.6339796 88.2299014,12.0507782 C87.8621015,11.5690181 87.74257,11.1985877 87.7474149,10.5560565 C87.7548208,9.58686621 88.1225515,8.84462241 88.8245136,8.38180914 C89.4122045,7.99429896 90.1487041,7.89977248 91.0061887,8.10182543 C92.0423823,8.34592088 92.8216558,8.9813297 93.5254175,10.1560996 C93.7493229,10.5299183 94.2097995,11.5793904 94.4339817,12.2269694 C94.468796,12.3274427 94.5088705,12.3316608 94.7505637,12.2603683 C94.9027639,12.2154907 95.0486657,12.1574057 95.0748284,12.1312674 C95.1009911,12.1051983 95.0992607,11.1145718 95.0709524,9.92991367 L95.0196653,7.77606518 L94.7685592,7.66978339 C94.3447656,7.49054956 93.2386665,7.1899595 92.5101956,7.05601817 C91.9620256,6.95526829 91.4797467,6.92919917 90.1915472,6.9306513 C88.6538334,6.93231087 88.5283496,6.94233745 87.8932475,7.1145181 C86.0485032,7.61453346 84.6808467,8.65460136 83.9661493,10.1009188 C83.5863062,10.8695774 83.4550084,11.462114 83.4593688,12.3885703 C83.4654596,13.7039889 83.8242618,14.6750463 84.6177241,15.5233644 C85.3003757,16.2533689 86.1880374,16.774198 87.6998653,17.3318836 C88.8895742,17.7707713 90.1177657,18.3836376 90.5831565,18.7706637 C90.856757,18.9980943 91.0717338,19.2571951 91.2319628,19.5528756 C91.4599517,19.9733006 91.471718,20.0288271 91.4718564,20.6864327 C91.4718564,21.3199745 91.4535841,21.4167829 91.2523115,21.8412877 C90.7262898,22.9503662 89.6742464,23.5009985 88.2961386,23.3884933 C86.4235705,23.2354669 85.1054016,21.9983248 84.0321096,19.3867109 C83.7521415,18.7054564 83.7330386,18.69135 83.3073763,18.85302 L83.1120561,18.9272168 L83.1608515,21.3626394 C83.2042483,23.5242325 83.2228667,23.8080886 83.3258562,23.8871257 C83.6335789,24.122785 85.6257478,24.59521 87.0077315,24.76013 C88.0806774,24.8880554 89.7265025,24.8923426 90.5377526,24.7691885 Z M12.3957713,24.0054394 C12.3957713,23.7962641 12.3770836,23.6251207 12.3542432,23.6251207 C12.0243722,23.6251207 10.4876274,23.2941052 10.2406049,23.1698447 C9.36173329,22.7276377 8.95545072,21.6767826 8.79778263,19.4379502 C8.68572616,17.8464202 8.57422339,13.1707821 8.64655138,13.0984524 C8.71216567,13.0328993 11.6385076,13.1494151 11.9804217,13.2311491 C12.926015,13.457335 13.6549012,14.3866956 14.0198633,15.8314226 L14.1807152,16.4682144 L14.603263,16.4888899 L15.0257415,16.5094271 L15.0257415,8.48159093 L14.5758545,8.48159093 C14.1553139,8.48159093 14.1259675,8.49168666 14.1259675,8.6373833 C14.1259675,8.89938831 13.8634411,9.72848306 13.6148958,10.2513175 C13.2256397,11.0701783 12.6774697,11.5644543 11.9803525,11.7250871 C11.8090494,11.7645711 11.0004986,11.8277731 10.1834346,11.8655975 C9.03117016,11.9189113 8.68538009,11.9154539 8.6419833,11.8502465 C8.56162656,11.72972 8.74469596,2.62551282 8.83598842,2.20246014 L8.87038747,2.04300288 L11.4116953,2.06416243 L13.9530032,2.08539113 L14.5444316,2.29698662 C15.9141645,2.78711369 16.8997631,3.78790505 17.723264,5.5248551 C17.9083405,5.91513123 18.1454656,6.48325821 18.2502547,6.78758232 C18.3550437,7.09183727 18.4477897,7.35045399 18.4563721,7.36227844 C18.4648854,7.37410289 18.6922513,7.31691679 18.9615606,7.23518285 L19.4512453,7.08658196 L19.4168463,4.82804211 C19.397951,3.5858521 19.3643825,2.09493367 19.3425111,1.51498223 L19.302575,0.460462216 L-1.42108547e-14,0.460462216 L0.0206255888,0.892365955 L0.0411819643,1.32426969 L0.664102433,1.40206215 C1.49514755,1.50585458 1.79975566,1.59637043 2.13440238,1.83852972 C2.64166728,2.20564098 2.95361201,2.74486374 3.1500396,3.59428826 C3.45520141,4.91385583 3.56504305,7.88981504 3.51424043,13.4604467 C3.46046163,19.3466045 3.38612645,20.5707467 3.01057462,21.7583091 C2.70167528,22.7350367 2.12665048,23.252685 1.17704283,23.4095146 C0.915693089,23.4525943 0.545401477,23.5213283 0.354234106,23.5624027 L0.006644485,23.6368069 L0.006644485,24.3859656 L12.3958405,24.3859656 L12.3958405,24.0054394 L12.3957713,24.0054394 Z M44.3032111,24.0113862 L44.3032111,23.6370143 L43.7668074,23.5916527 C42.5296181,23.4873762 42.1906802,23.363254 41.8657233,22.8958769 C41.3948647,22.2184256 41.2924289,20.9683526 41.2924289,15.9034065 L41.2924289,11.9502357 L41.4640088,11.7677519 C41.6805083,11.5374862 42.3572768,11.2162206 42.8358181,11.1165771 C43.8075741,10.9141093 45.0498159,11.0890559 46.0213642,11.5650766 C46.3002249,11.7017147 46.5400493,11.8018423 46.5543073,11.7875285 C46.5829616,11.7589008 48.1787454,7.54593779 48.228233,7.36815609 C48.2507273,7.28752853 48.158812,7.21727329 47.8904025,7.10995427 C47.3158622,6.88024178 46.8176642,6.80155039 46.1750179,6.83875247 C44.4560343,6.93839597 42.9305021,8.07935205 41.8316703,10.087089 C41.6492931,10.4203865 41.4603405,10.6933862 41.4118912,10.6937319 C41.3413627,10.6942159 41.3331955,10.3113387 41.3710553,8.78868099 L41.4184664,6.88300774 L41.2516622,6.92228428 C41.1598852,6.94385873 39.7766557,7.22384243 38.1778957,7.54441652 C34.7487878,8.23196357 34.2721844,8.33216026 34.1904434,8.38263892 C34.156598,8.40352188 34.1289127,8.52709088 34.1289127,8.65729817 C34.1289127,8.91840424 34.0983896,8.90326064 34.8775247,9.02848922 C35.9486018,9.20060071 36.326853,9.72232881 36.4865974,11.2476142 C36.6948605,13.2364044 36.611666,20.9891664 36.370665,22.0476279 C36.2474652,22.5887868 35.9290836,23.1099618 35.6086257,23.2951424 C35.4898555,23.3638763 35.1161032,23.4739613 34.778065,23.5398602 L34.1634502,23.6597643 L34.1424785,24.0227958 L34.1215761,24.3858273 L44.3032111,24.3858273 L44.3032111,24.0113862 Z" id="Shape"></path>
            </g>
        </g>
    </g>
</svg>