<?xml version="1.0" encoding="UTF-8"?>
<svg width="60px" height="29px" viewBox="0 0 60 29" version="1.1" xmlns="http://www.w3.org/2000/svg" xmlns:xlink="http://www.w3.org/1999/xlink">
    <!-- Generator: Sketch 49.1 (51147) - http://www.bohemiancoding.com/sketch -->
    <title>fox-business</title>
    <desc>Created with Sketch.</desc>
    <defs></defs>
    <g id="---Homepage-Refresh" stroke="none" stroke-width="1" fill="none" fill-rule="evenodd" opacity="0.3">
        <g id="Desktop:-Homepage-Refresh---hero-options" transform="translate(-507.000000, -5965.000000)" fill="#000000" fill-rule="nonzero">
            <g id="fox-business" transform="translate(507.000000, 5965.000000)">
                <path d="M54.6674157,23 C54.1876404,23 53.794382,23.184739 53.4719101,23.5461847 C53.1651685,23.9156627 53,24.3493976 53,24.8554217 C53,25.3614458 53.1573034,25.7951807 53.4483146,26.1485944 C53.7786517,26.5180723 54.1797753,26.7028112 54.6595506,26.7028112 L58.3483146,26.7028112 C58.5370787,26.7028112 58.6393258,26.8554217 58.6393258,27.1526104 C58.6393258,27.4578313 58.5370787,27.6024096 58.3483146,27.6024096 L53.2910112,27.6024096 L53.2910112,29 L58.3483146,29 C58.8280899,29 59.2370787,28.815261 59.5516854,28.437751 C59.8505618,28.0843373 60,27.6506024 60,27.1445783 C60,26.6465863 59.858427,26.2128514 59.5516854,25.8594378 C59.2292135,25.4819277 58.8280899,25.2971888 58.3483146,25.2971888 L54.6595506,25.2971888 C54.4707865,25.2971888 54.3764045,25.1445783 54.3764045,24.8473896 C54.3764045,24.5502008 54.4707865,24.3975904 54.6595506,24.3975904 L59.7168539,24.3975904 L59.7168539,23 L54.6674157,23 Z" id="Shape"></path>
                <path d="M45.6692913,23 C45.1811024,23 44.7874016,23.184739 44.4724409,23.5461847 C44.1574803,23.9156627 44,24.3493976 44,24.8554217 C44,25.3614458 44.1496063,25.7951807 44.4566929,26.1485944 C44.7716535,26.5180723 45.1732283,26.7028112 45.6614173,26.7028112 L49.3464567,26.7028112 C49.5354331,26.7028112 49.6299213,26.8554217 49.6299213,27.1526104 C49.6299213,27.4578313 49.5275591,27.6024096 49.3464567,27.6024096 L44.2834646,27.6024096 L44.2834646,29 L49.3464567,29 C49.8267717,29 50.2362205,28.815261 50.5590551,28.437751 C50.8503937,28.0843373 51,27.6506024 51,27.1445783 C51,26.6465863 50.8503937,26.2128514 50.5590551,25.8594378 C50.2362205,25.4819277 49.8267717,25.2971888 49.3464567,25.2971888 L45.6614173,25.2971888 C45.4724409,25.2971888 45.3700787,25.1445783 45.3700787,24.8473896 C45.3700787,24.5502008 45.4645669,24.3975904 45.6614173,24.3975904 L50.7322835,24.3975904 L50.7322835,23 L45.6692913,23 Z" id="Shape"></path>
                <polygon id="Shape" points="36 23 36 23 36 29 42.991195 29 42.991195 27.5943775 37.5320755 27.5943775 37.5320755 26.6947791 42.6389937 26.6947791 42.6389937 25.2971888 37.5320755 25.2971888 37.5320755 24.3975904 43 24.3975904 43 23"></polygon>
                <polygon id="Shape" points="33.4767296 23 33.4767296 27.0160643 29.5320755 23 28 23 28 23 28 29 29.5320755 29 29.5320755 24.9598394 33.4767296 29 35 29 35 29 35 23"></polygon>
                <polygon id="Shape" points="0 20 0 21 51 21 50.2332108 20"></polygon>
                <polygon id="Shape" points="45 8.4335443 52.7542373 21 56 21 56 21 49.2033898 2"></polygon>
                <polygon id="Shape" points="26 23 26 23 26 29 26 29 27 29 27 29 27 23"></polygon>
                <polygon id="Shape" points="51 0 57.3915547 22 59.9913628 22 60 22 57.1151631 0"></polygon>
                <polygon id="Shape" points="0 0 0 19 5.71618921 19 5.71618921 13.0417227 11.9606929 13.0417227 11.9606929 7.69717362 5.78547635 7.69717362 5.78547635 5.14849708 13 5.14849708 12.922052 0"></polygon>
                <path d="M13,9.50420168 C13,14.7478992 17.7016194,19 23.5,19 C29.3068826,19 34,14.7478992 34,9.50420168 C33.991498,4.2605042 29.2983806,0 23.5,0 C17.7016194,0 13,4.2605042 13,9.50420168 M21.7910931,13.9411765 L21.7910931,5.25210084 C21.7910931,5.25210084 21.7145749,3.90756303 23.5765182,3.90756303 C25.4384615,3.90756303 25.3279352,5.25210084 25.3279352,5.25210084 L25.3279352,13.2352941 C25.3279352,14.1428571 25.2174089,14.8907563 23.5,14.8907563 C21.7910931,14.8907563 21.7910931,13.9411765 21.7910931,13.9411765" id="Shape"></path>
                <polygon id="Shape" points="41.7124444 0 39.5591111 4.02721999 37.1017778 0 30.3968889 0 36.156 9.01249442 30 19 30 19 36.6626667 19 39.4155556 14.8116912 42.1853333 19 49 19 49 19 42.6751111 9.08032129 48.5271111 0"></polygon>
                <path d="M18.6692913,23 C18.1811024,23 17.7795276,23.184739 17.4724409,23.5461847 C17.1653543,23.9156627 17,24.3493976 17,24.8554217 C17,25.3614458 17.1496063,25.7951807 17.4566929,26.1485944 C17.7716535,26.5180723 18.1732283,26.7028112 18.6614173,26.7028112 L22.3464567,26.7028112 C22.5354331,26.7028112 22.6377953,26.8554217 22.6377953,27.1526104 C22.6377953,27.4578313 22.5354331,27.6024096 22.3464567,27.6024096 L17.2834646,27.6024096 L17.2834646,29 L22.3464567,29 C22.8346457,29 23.2362205,28.815261 23.5511811,28.437751 C23.8503937,28.0843373 24,27.6506024 24,27.1445783 C24,26.6465863 23.8582677,26.2128514 23.5511811,25.8594378 C23.2362205,25.4819277 22.8346457,25.2971888 22.3464567,25.2971888 L18.6614173,25.2971888 C18.4724409,25.2971888 18.3700787,25.1445783 18.3700787,24.8473896 C18.3700787,24.5502008 18.4724409,24.3975904 18.6614173,24.3975904 L23.7322835,24.3975904 L23.7322835,23 L18.6692913,23 Z" id="Shape"></path>
                <path d="M15.4612022,23 L15.4612022,27.1445783 C15.4612022,27.4497992 15.3650273,27.6024096 15.1464481,27.6024096 L10.8448087,27.6024096 C10.6349727,27.6024096 10.5213115,27.4497992 10.5213115,27.1445783 L10.5213115,23 L9,23 L9,27.1445783 C9,27.6506024 9.17486339,28.0843373 9.51584699,28.4538153 C9.8568306,28.815261 10.3027322,29 10.8535519,29 L15.1551913,29 C15.6972678,29 16.1344262,28.815261 16.484153,28.4538153 C16.8338798,28.0843373 17,27.6506024 17,27.1445783 L17,23 L15.4612022,23 Z" id="Shape"></path>
                <path d="M0,28.9919786 L0,23 L6.19935691,23 C6.76527331,23 7.21114684,23.1684492 7.53697749,23.513369 C7.84565916,23.8181818 8,24.2032086 8,24.6524064 C8,25.2700535 7.73419078,25.7352941 7.21114684,26.040107 C7.65702036,26.3529412 7.87995713,26.7860963 7.87995713,27.3475936 C7.87995713,27.7967914 7.72561629,28.1818182 7.42550911,28.486631 C7.09967846,28.8235294 6.64523044,29 6.09646302,29 L0,28.9919786 Z M1.49196141,27.5882353 L6.08788853,27.5882353 C6.3022508,27.5882353 6.40514469,27.4358289 6.40514469,27.131016 C6.40514469,26.8262032 6.3022508,26.6737968 6.08788853,26.6737968 L1.49196141,26.6737968 L1.49196141,27.5882353 Z M1.49196141,25.2941176 L6.19935691,25.2941176 C6.41371919,25.2941176 6.52518757,25.1417112 6.52518757,24.8449198 C6.52518757,24.540107 6.41371919,24.3957219 6.19935691,24.3957219 L1.49196141,24.3957219 L1.49196141,25.2941176 Z" id="Shape"></path>
            </g>
        </g>
    </g>
</svg>