<svg width="124px" height="83px" viewBox="0 0 124 83" version="1.1" xmlns="http://www.w3.org/2000/svg" xmlns:xlink="http://www.w3.org/1999/xlink">
    <g stroke="none" stroke-width="1" fill="none" fill-rule="evenodd">
        <g transform="translate(0, -2)">
            <ellipse fill="#ECF7ED" cx="62" cy="72" rx="62" ry="13"></ellipse>
            <g stroke-width="1" transform="translate(22, 2)">
                <path d="M66.0210857,50.9720444 L66.5599928,50.4607544 C67.8168205,49.3027799 69.6449335,49.4314438 70.7875041,50.8467459 L73.0726454,53.8060139 C74.100959,55.3499799 73.8724448,57.4086011 72.6156171,58.5665756 L58.2192271,72.3336053 C56.9623994,73.4915797 55.1342864,73.3629159 53.9917157,71.9476138 L51.7065745,68.9883457 C50.7038189,67.60822 50.7875442,65.6163562 51.9577503,64.3251286 L49.1999953,60.6185849 C48.2859388,59.3319466 46.914854,58.5599636 45.3152551,58.5599636 L25.0917548,54.5713849 C23.7206701,54.4427211 22.3495853,53.6707381 21.4355288,52.3840999 L7.49616703,31.7978873 C5.66805401,29.2246107 5.89656813,25.3646959 8.18170941,23.1774108 C10.4668507,21.1187895 13.8945626,21.3761172 15.8369327,23.9493938 L22.1210712,32.4412064 C22.2353282,32.5698703 22.3495853,32.6985341 22.4638424,32.8271979 C21.7783,33.2131894 21.0927576,33.5991809 20.5214723,34.1138362 C19.2646446,35.2718107 18.4648451,36.9444404 18.3505881,38.745734 C18.1220739,42.6056489 20.6357293,45.9509084 23.9491842,46.2082361 L42.2303144,47.8808659 C42.4588285,47.8808659 42.6873426,47.752202 42.9158568,47.6235382 C43.258628,47.2375467 43.372885,46.5942276 43.0301138,46.2082361 C42.9158568,45.9509084 42.6873426,45.8222446 42.4588285,45.8222446 L24.1776983,44.1496148 C21.892557,43.8922872 20.064444,41.5763383 20.2929582,38.8743979 C20.4072152,37.5877596 20.8642435,36.4297851 21.7783,35.5291383 C22.5780994,34.6284915 23.7206701,34.2425 24.8632407,34.3711639 L25.2060119,34.3711639 C25.434526,34.4998277 25.6630401,34.4998277 25.8915543,34.4998277 L51.4851365,34.4998277 C52.8562213,34.6284915 54.2273061,35.2718107 55.1413626,36.558449 L66.0210857,50.9720444 Z" stroke="#666666" stroke-width="3" fill-rule="nonzero" transform="translate(39.998835, 47.460117) scale(-1, 1) rotate(-18.000000) translate(-39.998835, -47.460117) "></path>
                <path d="M68.8763047,15.837245 L68.4499859,15.9495659 C67.2776094,16.2303681 65.8387836,16.342689 64.2933781,16.4550099 C62.4282336,16.6234912 60.563089,16.7919726 59.0709734,17.2412561 C58.3249156,18.364465 57.7387273,19.7123156 57.2058289,21.0040058 C56.4064812,22.80114 55.6071336,24.6544346 54.3281773,26.1146061 L54.1150179,26.3392479 L53.7952789,26.2830875 C52.8893515,26.0022853 52.3031632,25.5530017 52.036714,24.8790764 C51.5571054,23.5312258 52.6229023,21.9025729 53.6354093,20.3300805 C54.1150179,19.5438343 54.6479164,18.7575881 54.8610757,18.0836627 L54.3814672,18.0836627 C51.8768445,18.0836627 51.024207,19.6561552 49.9051203,21.9025729 C49.7452507,22.1833751 49.5853812,22.4641773 49.4255117,22.80114 C49.2123523,23.1381026 48.9991929,23.5312258 48.7860335,23.9805093 C47.9866859,25.4406808 47.2939179,26.8446919 46.1748312,26.8446919 C45.5353531,26.8446919 45.0024546,26.3954084 44.4695562,25.4968413 L44.3629765,25.2721995 L44.4695562,24.9913973 C44.8425851,24.0366697 45.3221937,23.2504235 45.8018023,22.5203378 C46.228121,21.8464125 46.6544398,21.1724871 46.9741789,20.4424014 C46.920889,20.4985618 46.920889,20.4985618 46.8675992,20.4985618 C46.1748312,20.7232036 45.4820632,20.9478454 44.7892953,20.9478454 C44.0432374,20.9478454 43.0840203,20.6108827 42.817571,19.0383903 L42.7642812,18.7014276 L43.0307304,18.4767859 C44.0432374,17.6905396 45.4287734,17.2974165 46.7610195,16.9042934 C47.6669468,16.6234912 48.626164,16.342689 49.4255117,15.9495659 C50.0649898,14.9948384 50.5978882,13.9839504 51.1840765,12.916902 C51.1840765,12.8607415 51.2373664,12.8045811 51.2373664,12.7484206 C50.7044679,12.916902 50.1182796,13.0853833 49.5853812,13.0853833 C48.9991929,13.0853833 48.5728742,12.916902 48.2531351,12.5237789 C47.8801062,12.1306558 47.7202367,11.5690513 47.7735265,10.7828051 L47.8268164,10.389682 L48.1465554,10.2773611 C49.9584101,9.65959625 51.716975,9.04183137 53.42225,8.31174561 C54.3281773,7.1323763 55.0742351,5.78452566 55.7670031,4.49283547 C56.5663507,3.08882438 57.3656984,1.62865286 58.3249156,0.33696266 L58.5913648,0 L58.9111039,0.112320887 C59.8703211,0.449283547 60.4032195,0.954727536 60.6163789,1.62865286 C60.9361179,2.86418261 59.9769008,4.15587281 59.0176836,5.447563 C58.5913648,6.00916744 58.2183359,6.57077187 57.9518867,7.07621586 C59.0176836,6.96389497 60.4565094,6.51461142 61.3624367,6.12148832 C61.6821758,5.78452566 62.0552047,4.94211901 62.4815234,4.15587281 C63.3341609,2.47105951 64.1867984,0.67392532 65.4124648,0.67392532 C66.051943,0.67392532 66.5848414,1.12320887 67.06445,2.0779364 L67.1710297,2.30257818 L67.06445,2.52721995 C66.6914211,3.53810793 66.3183922,4.43667502 65.7854937,5.22292123 C65.9986531,5.16676079 66.1585226,5.11060034 66.371682,5.0544399 C66.9578703,4.88595857 67.5440586,4.71747724 68.1835367,4.6613168 L68.3434062,4.6613168 L68.5032758,4.77363768 C69.1427539,5.33524212 69.8888117,6.00916744 69.6756523,6.79541364 C69.4092031,7.80630162 68.1302469,8.03094339 66.4249719,8.25558517 C65.5723344,8.4240665 64.666407,8.53638738 64.0802187,8.8171896 C63.0677117,9.26647315 62.5348133,10.5020029 61.948625,11.8498535 C61.6821758,12.4676184 61.4157265,13.0853833 61.0959875,13.6469877 C61.7887554,13.5908273 62.5881031,13.422346 63.3341609,13.3100251 C64.346668,13.0853833 65.359175,12.8607415 66.2118125,12.8607415 C66.9578703,12.8607415 67.5440586,13.0292228 68.0236672,13.3661855 C68.5565656,13.8154691 68.8230148,14.4893944 68.8763047,15.331801 L68.8763047,15.837245 Z M59.1242633,9.99655891 C58.538075,10.1088798 58.0051765,10.2773611 57.4722781,10.4458425 C57.0459593,10.5581633 56.5130609,10.7266447 56.0334523,10.8389656 C55.5005539,11.6813722 55.0209453,12.6360997 54.5413367,13.4785064 C54.3281773,13.9839504 54.0617281,14.4332339 53.7952789,14.9386779 C54.1683078,14.8825175 54.5946265,14.7701966 55.0209453,14.6578757 C55.5538437,14.5455548 56.140032,14.4332339 56.6729304,14.3770735 C57.0459593,13.6469877 57.4189883,12.9730624 57.7920172,12.3552975 C58.2716258,11.5690513 58.7512343,10.7828051 59.1242633,9.99655891 Z" fill="#666666"></path>
            </g>
        </g>
    </g>
</svg>