<?xml version="1.0" encoding="UTF-8"?>
<svg width="44px" height="37px" viewBox="0 0 44 37" version="1.1" xmlns="http://www.w3.org/2000/svg" xmlns:xlink="http://www.w3.org/1999/xlink">
    <!-- Generator: Sketch 49.1 (51147) - http://www.bohemiancoding.com/sketch -->
    <title>inc-500</title>
    <desc>Created with Sketch.</desc>
    <defs></defs>
    <g id="---Homepage-Refresh" stroke="none" stroke-width="1" fill="none" fill-rule="evenodd" opacity="0.3">
        <g id="Desktop:-Homepage-Refresh---hero-options" transform="translate(-793.000000, -5967.000000)">
            <g id="inc-500" transform="translate(793.000000, 5967.000000)">
                <g id="Group" transform="translate(0.000000, 17.000000)" fill="#000000" fill-rule="nonzero">
                    <path d="M28.5571807,3.41350812 C27.3432729,1.51040182 25.340325,0.0906241094 22.1538171,0.060416073 C19.48322,0.0302080365 17.4802721,0.936449131 16.0842782,2.44685095 L15.8718443,4.4707894 L14.6882842,4.4707894 C14.2634165,5.34682246 13.9295918,6.31347962 13.7475057,7.34055286 C15.6594104,8.42804218 16.8733182,10.3311485 16.8733182,12.6873753 C16.8733182,14.2279852 16.3574074,15.768595 15.4469766,16.9769165 C16.9036659,18.8800228 19.0886999,19.907096 21.668254,19.907096 C24.8547619,19.907096 27.0094482,18.5175264 28.3447468,16.554004 C27.3129252,14.9831861 26.7059713,12.8686235 26.7059713,10.3009404 C26.6756236,7.7030493 27.2825775,5.25619835 28.5571807,3.41350812 Z M21.8199924,16.0404674 C20.575737,16.0404674 19.7260015,15.1342263 19.3618292,13.6540325 C19.1493953,12.6571673 19.1190476,11.599886 19.1190476,10.5728128 C19.1190476,8.69991451 19.2404384,6.22285551 19.9384354,5.01453406 C20.4543462,4.16870903 21.2737339,3.83642063 21.9110355,3.83642063 C23.2463341,3.83642063 23.9443311,4.92390995 24.2174603,6.10202337 C24.4905896,7.28013679 24.551285,9.36449131 24.551285,10.2103163 C24.551285,12.9290396 24.1567649,16.0404674 21.8199924,16.0404674 Z" id="Shape"></path>
                    <path d="M35.3854119,0.120832146 C32.2292517,0.0906241094 29.9835223,1.35936164 28.5875283,3.38330009 C29.8317838,5.31661442 30.2263039,7.73325734 30.2263039,9.69677971 C30.2263039,12.0530066 29.6800454,14.5904816 28.3143991,16.554004 C29.7710884,18.7591907 32.0775132,19.9675121 34.8695011,19.9675121 C41.242517,19.9675121 43.4578987,14.4998575 43.4578987,9.75719578 C43.427551,5.89056711 41.8494709,0.211456255 35.3854119,0.120832146 Z M35.0515873,16.1008834 C33.8073318,16.1008834 32.9575964,15.1946423 32.593424,13.7144486 C32.3809902,12.7175834 32.3506425,11.6603021 32.3506425,10.6332288 C32.3506425,8.76033058 32.4720333,6.28327159 33.1700302,5.07495013 C33.685941,4.22912511 34.5053288,3.89683671 35.1426304,3.89683671 C36.4779289,3.89683671 37.1759259,4.98432602 37.4490552,6.16243944 C37.7221844,7.34055286 37.7828798,9.42490738 37.7828798,10.2707324 C37.7828798,12.9894557 37.3883598,16.1008834 35.0515873,16.1008834 Z" id="Shape"></path>
                    <path d="M28.5571807,3.41350812 C27.2825775,5.25619835 26.6756236,7.7030493 26.6756236,10.3613565 C26.6756236,12.9290396 27.2825775,15.0133941 28.3143991,16.6144201 C29.6496977,14.6508977 30.2263039,12.1134226 30.2263039,9.75719578 C30.1959562,7.73325734 29.8014361,5.31661442 28.5571807,3.41350812 Z" id="Shape"></path>
                    <path d="M13.717158,7.34055286 C12.5639456,6.67597606 11.1376039,6.31347962 9.55952381,6.31347962 C8.52770219,6.31347962 7.28344671,6.49472784 6.43371126,6.82701624 C6.25162509,6.91764035 6.03919123,7.00826446 5.85710506,7.12909661 L6.13023432,4.44058136 L14.6579365,4.44058136 C15.0221088,3.68538045 15.507672,2.99059561 16.0539305,2.41664292 L16.2663643,0.483328584 L2.09399093,0.483328584 L1.03182162,10.784269 L5.79640967,11.3582217 C6.13023432,10.8748931 6.58544974,10.1499003 8.13318216,10.1499003 C10.1057823,10.1499003 11.0465608,11.3884298 11.0465608,13.1102878 C11.0465608,14.5904816 10.2271731,16.0706754 8.22422525,16.0706754 C7.07101285,16.0706754 6.16058201,15.5571388 5.82675737,14.4696495 C5.6750189,14.0165289 5.6750189,13.5634084 5.6750189,13.0800798 L0,13.6842405 C0.303476946,15.1342263 0.576606198,16.4633799 1.82086168,17.7321174 C3.975548,19.907096 7.16205593,19.907096 8.19387755,19.907096 C9.80230537,19.907096 12.7763794,19.7560559 14.8703704,17.6414933 C15.0828042,17.430037 15.2648904,17.2185808 15.4166289,17.0071245 C14.1723734,15.3758906 13.4440287,13.1102878 13.4440287,10.3009404 C13.4440287,9.2738672 13.5350718,8.27700199 13.717158,7.34055286 Z" id="Shape"></path>
                    <path d="M15.8414966,4.4707894 L16.0539305,2.44685095 C15.507672,3.05101168 15.0221088,3.71558849 14.6579365,4.4707894 L15.8414966,4.4707894 Z" id="Shape"></path>
                    <path d="M13.717158,7.34055286 C13.5350718,8.27700199 13.4440287,9.24365916 13.4440287,10.2707324 C13.4440287,13.0800798 14.1723734,15.3456825 15.4166289,16.9769165 C16.3270597,15.768595 16.8429705,14.2279852 16.8429705,12.6873753 C16.8429705,10.3311485 15.6290627,8.42804218 13.717158,7.34055286 Z" id="Shape"></path>
                </g>
                <polygon id="Shape" fill="#000000" fill-rule="nonzero" points="1 15 1 11.7050209 2.86746988 11.7050209 2.86746988 3.51464435 1 3.51464435 1 0 11 0 11 3.51464435 9.13253012 3.51464435 9.13253012 11.7050209 11 11.7050209 11 15"></polygon>
                <path d="M19.9590317,15 L19.9590317,11.8442623 L21.4785847,11.8442623 L21.4785847,8.56830601 C21.4785847,7.57650273 20.7504655,7.12568306 19.7690875,7.12568306 C18.566108,7.12568306 17.6480447,7.96721311 17.6480447,9.10928962 L17.6480447,11.8142077 L19.2309125,11.8142077 L19.2309125,14.9398907 L11,14.9398907 L11,11.8442623 L12.4878957,11.8442623 L12.4878957,7.12568306 L11,7.12568306 L11,4 L17.4897579,4 L17.4897579,6.16393443 C17.58473,6.07377049 17.7113594,5.95355191 17.7746741,5.86338798 C18.9776536,4.57103825 20.3072626,4.12021858 22.1117318,4.12021858 C24.6126629,4.12021858 26.6703911,5.08196721 26.6703911,7.72677596 L26.6703911,11.8743169 L28,11.8743169 L28,15 L19.9590317,15 Z" id="Shape" fill="#000000" fill-rule="nonzero"></path>
                <path d="M39.9099307,8.88062955 L35.7066975,9.36384474 C35.6466513,8.10748525 35.4064665,6.78669707 33.9953811,6.78669707 C32.1939954,6.78669707 32.0438799,8.39741437 32.0438799,9.97591731 L32.0438799,10.0081317 C32.0438799,11.5544203 32.1939954,13.1973519 33.9953811,13.1973519 C34.9561201,13.1973519 35.7967667,12.6174937 35.7967667,11.3611342 L35.9468822,11.3611342 L40,11.3611342 L39.9099307,11.7477063 C39.2193995,15.4201418 36.1270208,16 33.9053118,16 C30.4226328,16 27,14.1637823 27,10.0081317 C27,5.85248104 30.4226328,4.01626332 33.9053118,4.01626332 C33.9353349,3.98404898 39.369515,3.62969117 39.9099307,8.88062955 Z" id="Shape" fill="#000000" fill-rule="nonzero"></path>
                <circle id="Oval" fill="#000000" fill-rule="nonzero" cx="42" cy="13" r="2"></circle>
                <g id="Group" transform="translate(39.000000, 11.000000)"></g>
            </g>
        </g>
    </g>
</svg>