<svg xmlns="http://www.w3.org/2000/svg" width="462" height="292" viewBox="0 0 462 292" fill="none" fill-rule="evenodd">
    <path fill="#90F288" fill-opacity=".1" d="M302.925 254.65c-47.235 8.58-135.886 42.07-184.475 36.788-73.641-8.005-100.496-65.21-109.513-117.89C-6.03 86.107 95.095-9.958 220.043 1.012 344.99 11.983 437.21-20.463 452.177 66.976c6.622 38.685 18.14 96.291 0 127.355-22.861 39.15-82.999 48.285-149.252 60.32z"/>
    <path fill="#90F288" opacity=".31" transform="matrix(-1 0 0 1 430.342 12.485)" d="M42.253 214.43S-17.11 196.15 4.89 153.967s48.394-25.806 37.54-59.924c-10.853-34.118-13.66-32.453-8.538-47.17C39.015 32.156 53.531 1.853 88.585.47c35.055-1.383 55.068 16.567 49.076 55.61-5.993 39.043-54.873 38.38 5.992 42.851 60.865 4.471 75.438 35.86 63.229 66.519-12.21 30.66 3.37 48.98 3.37 48.98"/>
    <path stroke="#93D486" stroke-width="1.088" d="M349.498 195.997v-49.752l-22.802-16.516M348.462 140.943V117.26l16.583-11.998M349.498 112.397V86.91"/>
    <path fill="#90F288" d="M98.834 235.648c-9.43-26.694-59.624-24.248-37.904-96.187-7.84-20.896-7.772-28.354 6.827-40.037 14.598-11.684 16.722-6.48 26.53-4.808 28.056 4.803 53.55 10.264 53.552-3.446.001-13.71 14.718-37.669 46.513-33.533 31.795 4.136 45.405 43.218 45.249 71.642-.156 28.425 5.875 39.163 40.474 46.351 34.6 7.188 33.913 31.42.249 56.017-33.664 24.597-172.06 30.695-181.49 4.001z" opacity=".36"/>
    <g stroke-width="1.088">
        <path stroke="#93D486" d="M186.602 236.756l-63.754-64.73-41.66 5.05M122.066 169.018l4.426-57.996M120.793 137.913l-15.34-10.392M204.657 233.368l-12.928-132.06 18.44-19.48"/>
        <path stroke="#048400" d="M145.377 188.118l26.677-19.577" opacity=".3"/>
        <path stroke="#93D486" d="M175.269 146.438l18.018 1.134M190.644 98.014l-1.49-17.033"/>
    </g>
    <path fill="#57B150" d="M446.324 240.687c-8.234-12.941-92.793-12.756-112.085-12.756H111.907S-34.696 224.09 8.652 250.34c43.349 26.251 70.635-9.123 126.97 21.476 56.335 30.598 139.95 16.455 210.811 4.474 70.862-11.98 108.125-22.662 99.891-35.603z"/>
    <path fill="#5B6670" d="M176.56 253.185l.308-.048-.308.048zm-29.593-38.132l.016.103.151.292-.167-.395z"/>
    <g fill="#AAA">
        <path d="M201.472 255.779l132.224-20.942c6.155-.975 10.383-6.813 9.405-12.986l-11.456-72.329c-.978-6.173-6.802-10.418-12.957-9.443L186.463 161.02c-6.154.975-10.382 6.812-9.405 12.985l11.456 72.33c.978 6.172 6.803 10.418 12.958 9.443z"/>
        <path d="M197.045 159.45s-8.971 3.109-10.829-8.62l-1.857-11.73-4.206.667 3.976 25.104 13.335-2.112-.521-3.292.102-.017z"/>
    </g>
    <path fill="#666" d="M191.727 257.322l-30.364 4.81c-6.155.974-11.98-3.271-12.957-9.444L128.46 126.755c-.978-6.173 3.25-12.01 9.405-12.985l30.363-4.81c6.155-.974 11.98 3.271 12.958 9.444l19.945 125.933c.978 6.173-3.25 12.01-9.404 12.985z"/>
    <g transform="rotate(-9 631.481 -1129.032)">
        <path fill="#CCC" d="M116.425 85.73H12.15C5.92 85.73.831 80.627.831 74.377V11.771C.83 5.521 5.92.417 12.15.417h104.274c6.231 0 11.32 5.104 11.32 11.354v62.605c0 6.25-5.089 11.355-11.32 11.355z"/>
        <path fill="#666" d="M.831 11.146h126.914v64.48H.831z"/>
        <path fill="#57B150" d="M22.849 12.813h82.879v49.168H22.849z"/>
        <ellipse cx="64.288" cy="93.022" fill="#CCC" rx="16.513" ry="16.563"/>
        <path fill="#CCC" d="M117.567 85.73s-19.63-3.229-40.92 18.126c.312.52-12.359 0-12.359 0V81.46h53.279v4.27zM11.009 85.73s19.63-3.229 40.92 18.126c-.312.52 12.359 0 12.359 0V81.46h-53.28v4.27z"/>
        <g transform="translate(51.929 81.251)">
            <ellipse cx="12.359" cy="12.188" fill="#666" rx="11.632" ry="11.667"/>
            <ellipse cx="12.359" cy="12.188" fill="#CCC" rx="7.893" ry="7.917"/>
        </g>
    </g>
    <path fill="#666" d="M224.684 203.166l-8.616 1.364c-1.334.212-2.523-.655-2.735-1.992l-.57-3.601c-.212-1.338.651-2.53 1.985-2.74l8.616-1.365c1.334-.211 2.523.655 2.734 1.993l.57 3.6c.213 1.338-.65 2.53-1.984 2.74zM218.793 214.435l-8.617 1.364c-1.333.212-2.522-.655-2.734-1.992l-.57-3.601c-.212-1.338.65-2.53 1.984-2.74l8.617-1.365c1.333-.211 2.522.655 2.734 1.993l.57 3.6c.196 1.235-.65 2.53-1.984 2.74zM235.589 228.86l-21.132 3.347c-1.333.211-2.522-.655-2.734-1.993l-.44-2.778c-.212-1.337.651-2.529 1.985-2.74l21.131-3.347c1.334-.21 2.522.656 2.734 1.993l.44 2.778c.212 1.337-.65 2.529-1.984 2.74zM233.77 212.063l-8.617 1.364c-1.334.211-2.523-.655-2.734-1.992l-.57-3.601c-.213-1.338.65-2.53 1.984-2.74l8.616-1.365c1.334-.211 2.523.655 2.735 1.992l.57 3.601c.298 1.219-.651 2.53-1.985 2.74zM318.236 188.349l-8.616 1.364c-1.334.211-2.523-.655-2.734-1.992l-.57-3.601c-.213-1.338.65-2.53 1.984-2.74l8.616-1.365c1.334-.211 2.523.655 2.735 1.992l.57 3.601c.212 1.338-.651 2.53-1.985 2.74zM312.345 199.617l-8.617 1.365c-1.333.211-2.522-.655-2.734-1.993l-.57-3.6c-.212-1.338.65-2.53 1.984-2.74l8.617-1.365c1.334-.212 2.522.655 2.734 1.992l.57 3.601c.196 1.235-.65 2.53-1.984 2.74zM327.424 197.23l-8.616 1.364c-1.334.211-2.523-.655-2.735-1.993l-.57-3.6c-.212-1.338.651-2.53 1.985-2.741l8.616-1.365c1.334-.21 2.522.655 2.734 1.993l.57 3.601c.196 1.235-.753 2.545-1.984 2.74zM314.264 219.036l8.617-1.365c1.333-.211 2.522.655 2.734 1.993l.57 3.6c.212 1.338-.651 2.53-1.984 2.74l-8.617 1.366c-1.334.21-2.522-.656-2.734-1.993l-.57-3.601c-.212-1.338.65-2.529 1.984-2.74zM320.155 207.767l8.617-1.365c1.333-.211 2.522.655 2.734 1.993l.57 3.6c.212 1.338-.65 2.53-1.984 2.74l-8.617 1.366c-1.333.21-2.522-.656-2.734-1.993l-.57-3.601c-.212-1.338.753-2.545 1.984-2.74zM305.179 210.139l8.616-1.365c1.334-.211 2.523.655 2.734 1.993l.57 3.6c.213 1.338-.65 2.53-1.984 2.741l-8.616 1.365c-1.334.21-2.523-.655-2.734-1.993l-.57-3.601c-.213-1.338.65-2.529 1.984-2.74z"/>
    <path fill="#666" d="M228.718 180.168l-8.617 1.365c-1.333.21-2.522-.656-2.734-1.993l-.57-3.601c-.212-1.338.65-2.529 1.984-2.74l8.617-1.365c1.333-.211 2.522.655 2.734 1.993l.57 3.6c.315 1.322-.65 2.53-1.984 2.74zM307.293 167.723l-8.616 1.364c-1.334.212-2.523-.655-2.734-1.992l-.57-3.601c-.213-1.338.65-2.53 1.984-2.74l8.616-1.365c1.334-.211 2.523.655 2.735 1.993l.57 3.6c.212 1.338-.651 2.53-1.985 2.74z"/>
    <path fill="#666" d="M256.26 200.696l-8.31 1.316c-1.128.179-2.3-.585-2.496-1.82l-.913-5.761c-.179-1.132.581-2.307 1.812-2.502l8.31-1.316c1.128-.179 2.3.585 2.496 1.82l.912 5.761c.196 1.235-.683 2.323-1.812 2.502zM271.236 198.324l-8.309 1.316c-1.128.179-2.3-.585-2.496-1.82l-.913-5.761c-.18-1.132.581-2.307 1.812-2.502l8.309-1.316c1.128-.179 2.3.585 2.496 1.82l.913 5.761c.195 1.235-.581 2.307-1.812 2.502zM286.315 195.936l-8.309 1.316c-1.128.178-2.3-.585-2.496-1.82l-.913-5.761c-.18-1.132.581-2.307 1.812-2.502l8.309-1.316c1.128-.179 2.3.585 2.496 1.82l.913 5.76c.196 1.235-.581 2.308-1.812 2.503zM258.247 213.248l-8.309 1.316c-1.128.179-2.3-.585-2.496-1.82l-.912-5.761c-.18-1.132.58-2.307 1.812-2.502l8.308-1.316c1.129-.179 2.301.585 2.497 1.82l.912 5.761c.196 1.235-.683 2.323-1.812 2.502zM273.224 210.876l-8.309 1.316c-1.128.179-2.3-.585-2.496-1.82l-.913-5.761c-.18-1.132.581-2.307 1.812-2.502l8.309-1.316c1.128-.179 2.3.585 2.496 1.82l.913 5.761c.195 1.235-.581 2.307-1.812 2.502zM288.303 208.488l-8.309 1.316c-1.128.178-2.3-.585-2.496-1.82l-.913-5.761c-.179-1.132.581-2.307 1.812-2.502l8.31-1.316c1.127-.179 2.3.585 2.495 1.82l.913 5.76c.196 1.235-.581 2.308-1.812 2.503zM260.252 225.903l-8.31 1.316c-1.128.179-2.3-.585-2.496-1.82l-.912-5.761c-.18-1.132.58-2.307 1.812-2.502l8.309-1.316c1.128-.179 2.3.585 2.496 1.82l.913 5.761c.179 1.132-.684 2.323-1.812 2.502zM275.228 223.53l-8.309 1.317c-1.128.179-2.3-.585-2.496-1.82l-.913-5.761c-.179-1.132.581-2.307 1.812-2.502l8.31-1.316c1.128-.179 2.3.585 2.496 1.82l.912 5.761c.18 1.132-.58 2.307-1.812 2.502zM290.307 221.143L282 222.459c-1.129.178-2.301-.585-2.497-1.82l-.912-5.761c-.18-1.132.58-2.307 1.812-2.502l8.308-1.316c1.129-.179 2.301.585 2.497 1.82l.912 5.76c.18 1.133-.58 2.308-1.812 2.503zM262.24 238.455l-8.31 1.316c-1.127.179-2.3-.585-2.495-1.82l-.913-5.761c-.18-1.132.581-2.307 1.812-2.502l8.309-1.316c1.128-.178 2.3.585 2.496 1.82l.913 5.761c.195 1.235-.684 2.323-1.812 2.502zM277.216 236.083l-8.309 1.316c-1.128.179-2.3-.585-2.496-1.82l-.912-5.761c-.18-1.132.58-2.307 1.811-2.502l8.31-1.316c1.128-.179 2.3.585 2.496 1.82l.912 5.761c.196 1.235-.58 2.307-1.812 2.502zM292.295 233.695l-8.308 1.316c-1.129.178-2.301-.585-2.497-1.82l-.912-5.761c-.18-1.132.58-2.307 1.812-2.502l8.309-1.316c1.128-.179 2.3.585 2.496 1.82l.912 5.76c.196 1.236-.58 2.308-1.812 2.503z"/>
    <path fill="#FFF" d="M248.617 124.909l.04.255s-.213.295-.448.463c-.214.296-.428.591-.494.994a1.921 1.921 0 0 0 .263 1.658c.375.726 1.28 1.498 2.552 1.296a2.47 2.47 0 0 0 1.445-.752c.342-.315.515-.866.709-1.289.046-.53-.075-1.296-.39-1.638a3.925 3.925 0 0 0-.777-.793l-.275-.087-.147-.107-.061-.383-.08-.51c-.405-2.552-.81-5.104-1.193-7.528l-2.546-16.075-.06-.382.106-.148c.555-.611 1.03-1.732.466-2.82-.208-.49-.523-.833-1.072-1.007-.295-.215-.844-.39-1.607-.269-.254.04-.489.208-.743.249-.361.188-.575.483-.79.778a2.814 2.814 0 0 0-.474 1.122c-.046.53.015.913.202 1.276.208.49.544.96 1.093 1.134 0 0 .147.108.274.088l.128-.02 3.798 23.984.081.51zM241.825 121.538c-.214.295-.321.443-.683.631-.361.188-.743.249-.997.289-.254.04-.676-.155-.951-.242-.341.316-.535.739-.876 1.054l-.75 1.034-.213.296.147.107c.865.517 1.688.78 2.579.638l.381-.06c.51-.08.998-.289 1.252-.33 1.339-.604 2.235-1.53 2.816-2.8.194-.422.28-.698.347-1.1.174-.551.22-1.082.12-1.72-.102-.637-.055-1.168-.156-1.806l-1.94-12.247-.101-.638-.02-.128-2.972.994 2.02 12.758c.142.893.41 1.766.257 2.444.04.255-.046.53-.26.826zM268.21 98.788c-.14-.893-.282-1.786-.363-2.296l-.127.02-.02-.128c-.382.06-.743.249-1.125.31-1.867.557-4.35 1.342-6.834 2.128l2.97 18.754.128-.02c1.358-.477 2.844-.974 4.223-1.323 1.232-.457 2.356-.766 3.588-1.222l-.404-2.552-2.23.746c-.87.268-1.867.557-2.717.953l-.323-2.041-.546-3.445c.87-.268 1.868-.557 2.718-.953.489-.208 1.125-.31 1.613-.517l-.384-2.424c-.616.228-1.359.476-1.974.705-.87.268-1.868.557-2.356.765l-.87-5.486c.49-.208 1.125-.309 1.614-.517 1.211-.584 2.316-1.02 3.42-1.457.02.128.02.128 0 0zM255.556 120.148c.489-.208.998-.289 1.486-.497.254-.04.616-.228.87-.269.242-6.708.59-13.563.765-19.869l-.02-.127c-.255.04-.489.208-.743.248-.616.229-1.359.477-1.975.705-.058 2.102.01 4.184-.047 6.285.002 2.485.004 4.97-.014 7.326l.02.128-.02-.128c-1.282-3.982-2.712-8.07-4.162-12.288-.87.269-1.74.538-2.718.954 2.095 5.815 4.336 11.737 6.558 17.532z"/>
    <path fill="#AAA" d="M180.745 253.05l-10.258 1.625c-6.155.975-11.98-3.27-12.957-9.444l-20.468-129.225c-.977-6.173 3.25-12.01 9.405-12.985l10.258-1.625c6.155-.975 11.98 3.27 12.958 9.444l20.467 129.225c.978 6.173-3.25 12.01-9.405 12.985z"/>
    <path fill="#57B150" d="M151.463 104.022l1.641-.26 2.77 17.491-1.641.26z"/>
    <path d="M-34-1h530.52v291.846H-34z"/>
</svg>
