<?xml version="1.0" encoding="UTF-8"?>
<svg width="104px" height="14px" viewBox="0 0 104 14" version="1.1" xmlns="http://www.w3.org/2000/svg" xmlns:xlink="http://www.w3.org/1999/xlink">
    <!-- Generator: Sketch 49.1 (51147) - http://www.bohemiancoding.com/sketch -->
    <title>techchrunch</title>
    <desc>Created with Sketch.</desc>
    <defs></defs>
    <g id="---Homepage-Refresh" stroke="none" stroke-width="1" fill="none" fill-rule="evenodd" opacity="0.3">
        <g id="Desktop:-Homepage-Refresh---hero-options" transform="translate(-1023.000000, -5979.000000)" fill="#000000" fill-rule="nonzero">
            <g id="techchrunch" transform="translate(1023.000000, 5979.000000)">
                <g id="Group">
                    <path d="M13.1214953,0 L0,0 L0,4.44325768 L4.34366742,4.44325768 L4.34366742,13.6074766 L8.77782791,13.6074766 L8.77782791,4.44325768 L13.1214953,4.44325768 L13.1214953,0 Z M17.4651627,0 L26.2429907,0 L26.2429907,4.44325768 L17.4651627,4.44325768 L17.4651627,0 Z M17.4651627,8.92807833 L17.4651627,4.44325768 L13.1214953,4.44325768 L13.1214953,13.6074766 L26.2429907,13.6074766 L26.2429907,8.93465065 L17.4651627,8.92807833 Z" id="Shape"></path>
                </g>
                <path d="M34.4127305,4.09751279 L34.4127305,12.2777644 L32.3111897,12.2777644 L32.3111897,4.09751279 L29.1588785,4.09751279 L29.1588785,2.46146248 L37.0396565,2.46146248 L37.0396565,4.09751279 L34.4127305,4.09751279 Z M42.9423592,9.00566373 L38.5719424,9.00566373 C38.6412933,10.0963639 39.3791968,10.59645 40.0753322,10.59645 C40.604395,10.59645 41.0493963,10.4745642 41.3281132,10.1413553 L42.6920131,11.365939 C42.1075221,12.1457896 41.0493963,12.6142454 40.0753322,12.6142454 C37.9735287,12.6142454 36.6372114,11.0785395 36.6372114,8.68008972 C36.6372114,6.35389885 38.0428795,4.72602879 39.8945996,4.72602879 C41.843516,4.72602879 42.9704673,6.35907967 42.9704673,8.52657366 C42.9704673,8.81697259 42.9565446,9.00566373 42.9423592,9.00566373 Z M39.7971407,6.55649641 C39.1010053,6.55649641 38.6696641,6.82426331 38.6000505,7.91496352 L41.1056125,7.91496352 C41.0499217,6.82426331 40.6600859,6.55649641 39.7971407,6.55649641 Z M47.5497247,12.635514 C45.6425764,12.635514 44.1257893,11.0171876 44.1257893,8.69099672 C44.1257893,6.36480585 45.6013337,4.73202764 47.6332609,4.73202764 C49.025269,4.73202764 49.9160596,5.44016475 50.5286588,6.40843386 L49.2622177,7.73745206 C48.8306138,7.10157384 48.3714271,6.65356873 47.5920182,6.65356873 C46.6731195,6.65356873 46.0747057,7.44814383 46.0747057,8.69045137 C46.0747057,9.90467337 46.6731195,10.7139729 47.5920182,10.7139729 C48.343319,10.7139729 48.8166911,10.3674029 49.3181713,9.74597649 L50.5428442,10.9449287 C49.8325234,11.9276496 48.9971609,12.635514 47.5497247,12.635514 Z M56.2162162,12.2777644 L56.2162162,8.37305761 C56.2162162,7.01540852 55.9658702,6.61075875 55.1722758,6.61075875 C54.3786815,6.61075875 54.1146754,7.0156812 54.1146754,8.3305203 L54.1146754,12.2783097 L52.0131346,12.2783097 L52.0131346,2.94164325 L54.1146754,1.94392523 L54.1146754,5.39790012 C54.1146754,5.03660567 54.9566052,4.73339101 55.7220914,4.73339101 C57.5874716,4.73339101 58.317757,6.06240922 58.317757,8.20072697 L58.317757,12.2783097 L56.2162162,12.2777644 Z" id="Shape"></path>
                <path d="M66.1861173,5.31009875 C65.8470884,4.61695877 65.3048979,4.21203632 64.4510567,4.21203632 C63.0273909,4.21203632 62.2142332,5.54159987 62.2142332,7.41951295 C62.2142332,9.2398916 63.041208,10.6269896 64.4646178,10.6269896 C65.3194826,10.6269896 65.8209895,10.2370643 66.3222407,9.34132672 L67.9222015,10.3524058 C67.2717776,11.7828591 66.1321286,12.6352413 64.4108849,12.6352413 C61.9297047,12.6352413 60.2616822,10.6117198 60.2616822,7.4189676 C60.2616822,4.34155697 61.9967429,2.20323921 64.4779231,2.20323921 C66.267996,2.20323921 67.3526328,3.12788031 67.9485562,4.44217406 L66.1861173,5.31009875 Z M73.1550175,7.21718806 C72.856672,6.92787983 72.5547443,6.72582762 72.1346043,6.72582762 C71.4030693,6.72582762 70.9926524,7.05903653 70.9926524,8.37278493 L70.9926524,12.2774917 L68.9456851,12.2774917 L68.9456851,4.64259022 L70.9926524,4.64259022 L70.9926524,5.39708209 C71.5043942,5.03578765 71.7285371,4.73257299 72.3930339,4.73257299 C73.0027743,4.73257299 73.4311022,4.99215964 73.6749472,5.26701609 L73.1550175,7.21718806 Z M79.1805216,12.2098683 L79.1805216,11.9710049 C78.6687798,12.3320267 78.3604553,12.635514 77.6148475,12.635514 C75.7976523,12.635514 75.086587,11.3059505 75.086587,9.16817806 L75.086587,4.6428629 L76.6218125,4.6428629 L76.6218125,8.99421138 C76.6218125,10.3524058 77.1215283,10.7570556 77.8947702,10.7570556 C78.6664769,10.7570556 79.1805216,10.3518605 79.1805216,9.03702136 L79.1805216,4.64259022 L81.2274889,4.64259022 L81.2274889,12.2774917 L79.1001781,12.2774917 L79.1805216,12.2098683 Z M86.600778,12.2777644 L86.600778,8.37305761 C86.600778,7.01540852 86.4848685,6.61075875 85.7116266,6.61075875 C84.9399199,6.61075875 84.8096816,7.0156812 84.8096816,8.3305203 L84.8096816,12.2783097 L82.7627143,12.2783097 L82.7627143,4.64340825 L84.8096816,4.64340825 L84.8096816,5.39790012 C84.8096816,5.03660567 85.5018124,4.73339101 86.2474203,4.73339101 C88.0646155,4.73339101 88.6477453,6.06240922 88.6477453,8.20072697 L88.6477453,12.2783097 L86.600778,12.2777644 Z M93.5993592,12.635514 C91.7417364,12.635514 90.2645936,11.0171876 90.2645936,8.69099672 C90.2645936,6.36480585 91.7018205,4.73202764 93.680982,4.73202764 C95.0373537,4.73202764 95.9047561,5.44016475 96.5009353,6.40843386 L95.2681493,7.73745206 C94.8472416,7.10157384 94.400491,6.65356873 93.6415779,6.65356873 C92.7460297,6.65356873 92.1628999,7.44814383 92.1628999,8.69045137 C92.1628999,9.90467337 92.7460297,10.7139729 93.6415779,10.7139729 C94.3726011,10.7139729 94.8344481,10.3674029 95.3226498,9.74597649 L96.51552,10.9449287 C95.8223657,11.9276496 95.0094638,12.635514 93.5993592,12.635514 Z M101.953033,12.4768171 L101.953033,8.37305761 C101.953033,7.01540852 101.709188,6.61075875 100.935946,6.61075875 C100.164239,6.61075875 99.9060654,7.0156812 99.9060654,8.3305203 L99.9060654,12.2783097 L97.8590981,12.2783097 L97.8590981,2.94164325 L99.9060654,1.94392523 L99.9060654,5.39790012 C99.9060654,5.03660567 100.726132,4.73339101 101.47174,4.73339101 C103.288935,4.73339101 104,6.06240922 104,8.20072697 L104,12.2783097 L102.001136,12.2783097 L101.953033,12.4768171 Z" id="Shape"></path>
            </g>
        </g>
    </g>
</svg>