<svg xmlns="http://www.w3.org/2000/svg" width="100" height="100" viewBox="0 0 100 100">
    <path fill="none" fill-rule="evenodd" stroke="#666" stroke-linecap="round" stroke-linejoin="round" stroke-width="3" d="M38.62 37.94a6.079 6.079 0 0 0 0-8.587l-6.442-6.438a6.075 6.075 0 0 0-8.584 0l-3.533 3.533a9.091 9.091 0 0 0-1.148 11.456c10.26 15.514 23.944 29.198 39.46 39.46 3.607 2.383 8.4 1.91 11.453-1.15l3.537-3.533a6.07 6.07 0 0 0 0-8.584l-6.441-6.438a6.07 6.07 0 0 0-8.585 0l-2.146 2.146c-7.06-5.786-13.935-12.658-19.718-19.719l2.146-2.146zM60.075 34.692a5.846 5.846 0 0 1-5.847 5.847 5.846 5.846 0 0 1-5.846-5.847 5.846 5.846 0 0 1 5.846-5.847 5.846 5.846 0 0 1 5.847 5.847zM82 34.692a5.846 5.846 0 0 1-5.847 5.847 5.846 5.846 0 0 1-5.846-5.847 5.846 5.846 0 0 1 5.846-5.847A5.846 5.846 0 0 1 82 34.692zM74.692 40.539H55.69"/>
</svg>
