<?xml version="1.0" encoding="UTF-8"?>
<svg width="177px" height="19px" viewBox="0 0 177 19" version="1.1" xmlns="http://www.w3.org/2000/svg" xmlns:xlink="http://www.w3.org/1999/xlink">
    <!-- Generator: Sketch 49.1 (51147) - http://www.bohemiancoding.com/sketch -->
    <title>wall-street-journal</title>
    <desc>Created with Sketch.</desc>
    <defs>
        <path d="M29.371,0.43 C29.556,0.492 29.68,0.554 29.618,0.801 C29.556,1.233 28.877,1.048 28.507,1.171 C27.581,1.48 27.89,2.714 27.766,3.578 L27.766,15.799 C27.766,16.293 27.704,16.848 28.075,17.033 C28.322,17.404 29.062,17.156 29.556,17.219 C30.297,17.096 30.605,16.293 31.099,15.922 C31.284,15.244 31.593,14.688 31.716,14.01 C32.086,12.776 31.901,11.17 32.333,9.936 C32.58,9.875 32.642,10.059 32.703,10.245 L32.703,17.097 C32.827,17.281 32.641,17.589 32.641,17.775 L32.085,17.898 L25.235,17.898 C24.988,17.837 24.618,17.898 24.494,17.652 C24.556,16.972 25.667,17.281 25.667,16.48 L25.667,7.777 C25.605,6.666 25.667,5.247 25.667,4.197 C25.667,3.147 25.976,1.728 25.235,1.173 C24.926,0.864 23.939,1.358 24.062,0.679 C24.124,0.556 24.186,0.494 24.371,0.432 L29.371,0.432 L29.371,0.43 Z M54.181,1.355 C54.428,1.54 54.736,1.355 54.859,1.293 C55.106,1.047 54.859,0.429 55.353,0.491 L55.662,0.553 L55.662,7.033 C55.538,7.095 55.662,7.465 55.477,7.465 L55.106,7.465 C54.983,5.12 54.797,2.713 53.07,1.602 C52.7540735,1.40745818 52.3919386,1.30078545 52.021,1.293 C51.28,1.355 50.849,1.911 50.54,2.466 C50.108,3.145 50.232,4.441 50.602,5.058 C51.528,6.354 53.009,7.095 54.12,8.144 C55.231,9.316 56.527,10.551 56.589,12.525 C56.774,14.685 56.033,16.476 54.614,17.648 C53.811,18.203 52.577,18.265 51.651,17.894 L50.355,17.031 C50.046,16.908 49.985,17.217 49.861,17.34 C49.861,17.711 49.799,17.957 49.552,18.08 L49.12,17.957 L49.058,14.377 L49.058,10.365 C49.182,10.304 49.49,10.304 49.614,10.365 C49.737,12.896 49.799,15.551 51.65,16.845 C52.206,17.216 52.884,17.525 53.687,17.277 C54.859,16.785 55.291,15.488 55.291,14.068 C55.167,12.834 54.674,11.908 53.81,11.23 C52.638,9.81 50.91,9.07 49.799,7.526 C49.49,7.156 49.49,6.662 49.243,6.23 C48.626,4.193 49.428,2.157 50.601,0.922 C51.156,0.552 52.02,0.305 52.761,0.49 C53.294096,0.666289833 53.7798126,0.962166473 54.181,1.355 Z M5.364,0.492 C5.488,0.554 5.673,0.554 5.734,0.801 C5.549,1.233 4.993,1.233 4.808,1.603 C4.623,1.974 4.623,2.652 4.746,3.084 L5.487,7.466 C5.796,8.885 6.104,10.366 6.474,11.786 L6.659,11.786 C7.153,9.688 7.523,7.589 7.893,5.491 C7.523,3.887 7.831,1.726 6.35,0.986 C6.226,0.677 6.412,0.492 6.72,0.492 C7.584,0.554 10.361,0.492 11.04,0.554 C11.1019277,0.712844246 11.1019277,0.889155754 11.04,1.048 C10.547,1.233 9.991,1.171 9.683,1.603 C9.004,2.714 9.93,3.887 9.869,5.183 L10.609,9.071 C10.795,9.934 10.795,10.983 11.288,11.663 L11.35,11.663 L12.276,7.651 C12.77,5.984 13.016,4.195 13.387,2.467 C13.51,1.912 13.325,1.541 12.955,1.294 C12.708,1.048 12.276,1.109 11.906,1.048 C11.8440723,0.889155754 11.8440723,0.712844246 11.906,0.554 C12.832,0.554 15.671,0.492 16.041,0.554 C16.227,0.616 16.165,0.924 16.103,1.048 C15.548,1.171 14.992,1.294 14.684,1.665 C14.314,2.652 14.128,3.702 13.882,4.689 L12.833,9.503 C12.216,12.157 11.537,14.872 10.92,17.587 C10.797,17.773 10.488,17.773 10.364,17.649 C9.994,17.155 9.994,16.352 9.809,15.674 L8.883,10.365 L8.389,8.144 L8.265,8.144 L7.525,11.785 C7.14800356,13.5942975 6.77766772,15.4049764 6.414,17.217 C6.352,17.586 6.105,17.834 5.611,17.711 C5.179,17.586 5.364,17.031 5.241,16.66 L4.932,14.685 L4.006,9.81 L3.389,6.292 C3.204,4.873 2.833,3.454 2.525,2.096 C2.463,1.725 2.093,1.479 1.846,1.232 C1.414,1.109 1.044,1.294 0.612,1.047 C0.489,0.923 0.427,0.553 0.674,0.491 L5.364,0.491 L5.364,0.492 Z M19.435,0.923 C19.682,2.59 20.175,4.07 20.422,5.799 L21.718,12.156 C22.027,13.574 22.15,14.994 22.521,16.291 C22.706,16.846 23.076,17.217 23.693,17.277 C23.693,17.463 23.878,17.586 23.755,17.711 L23.569,17.895 L19.928,17.895 C19.804,17.711 19.187,17.895 18.941,17.711 C18.756,16.785 20.113,17.525 20.237,16.846 C20.546,16.537 20.422,15.92 20.361,15.551 C20.052,14.934 20.299,13.883 19.682,13.451 L17.213,13.451 L16.966,13.574 C16.904,14.685 16.102,15.92 16.781,17.031 C17.028,17.217 17.522,17.154 17.707,17.34 L17.645,17.711 L14.127,17.772 C13.757,17.895 13.819,17.34 13.942,17.217 C14.683,17.278 15.115,16.908 15.485,16.537 C15.917,15.551 15.917,14.316 16.226,13.205 L16.905,8.885 L17.522,5.305 C17.831,3.824 18.016,2.281 18.324,0.738 C18.386,0.43 19.559,0.245 19.435,0.923 Z M38.937,0.492 C38.999,0.615 39.122,0.862 38.999,0.986 C38.443,1.233 37.518,0.986 37.395,1.665 C37.271,3.578 37.271,4.998 37.271,6.911 L37.209,14.441 L37.147,14.441 C37.517,15.367 36.653,17.218 38.011,17.279 C38.32,17.341 38.937,17.341 39.245,17.156 C40.479,16.17 40.849,14.502 41.097,12.836 C41.282,11.973 41.159,10.924 41.405,10.059 C41.5640237,9.99803408 41.7399763,9.99803408 41.899,10.059 L41.899,17.588 L41.837,17.897 C40.85,17.897 39.801,17.897 39.06,17.959 L35.542,17.897 L33.629,17.897 C33.32,17.897 33.444,17.465 33.506,17.28 C34.123,17.219 34.863,17.28 35.172,16.788 C35.419,15.862 35.234,14.628 35.357,13.64 C35.233,12.777 35.419,11.851 35.295,10.863 L35.357,10.06 L35.357,2.161 C35.295,1.852 35.11,1.482 34.925,1.297 C34.555,0.865 33.074,1.483 33.629,0.495 L38.937,0.495 L38.937,0.492 Z M65.042,0.553 L65.165,0.862 L65.165,7.959 C65.103,8.144 64.98,8.206 64.856,8.268 L64.547,8.144 C64.609,5.922 64.3,3.948 63.683,2.158 C63.559,1.788 63.251,1.479 62.881,1.294 C62.572,1.294 62.264,1.294 62.14,1.541 L62.14,14.686 L62.08,14.686 C62.142,15.612 61.957,16.786 62.636,17.217 C63.068,17.526 63.809,17.031 63.87,17.711 C63.87,18.203 63.191,17.834 62.883,18.018 L61.526,18.018 L61.526,17.957 C61.093,18.143 60.662,17.834 60.291,18.018 C59.921,17.957 59.119,17.957 58.563,17.957 C58.378,17.895 58.44,17.525 58.501,17.402 C59.18,17.277 59.92,17.216 60.167,16.476 L60.167,1.664 C60.044,1.355 59.858,1.293 59.612,1.232 C58.686,1.479 58.44,2.466 58.193,3.392 C57.884,4.75 57.638,6.107 57.761,7.774 C57.638,7.959 57.761,8.268 57.452,8.268 L57.082,8.144 L57.082,0.676 C57.883,0.43 63.129,0.492 65.042,0.553 Z M72.386,0.553 C73.435,0.862 74.299,1.54 74.793,2.466 C75.225,3.824 75.472,6.046 74.607,7.218 C74.175,7.835 73.681,8.391 73.003,8.823 C72.879,9.256 73.312,9.256 73.558,9.625 C74.422,10.242 74.546,11.662 74.546,12.773 C74.546,12.648 74.422,12.525 74.361,12.648 C74.299,12.834 74.423,12.959 74.608,12.959 C74.67,14.008 74.485,15.18 74.732,16.105 C74.7858365,16.2825773 74.9245686,16.4216844 75.102,16.476 C75.411,16.414 75.473,16.105 75.596,15.919 C75.534,15.364 75.658,14.747 75.72,14.19 C75.905,14.315 76.091,13.944 76.214,14.19 C76.338,15.61 76.276,17.092 75.35,17.77 C74.979,18.016 74.609,18.141 74.054,18.079 C73.4854767,17.913147 73.0007151,17.5384124 72.697,17.03 L72.512,15.858 L72.512,11.415 C72.327,10.55 72.141,9.624 71.278,9.378 C70.907,9.255 70.29,9.13 69.982,9.378 L69.858,9.624 L69.858,16.476 C69.982,16.845 70.105,17.154 70.414,17.277 C70.722,17.339 71.154,17.277 71.093,17.771 L70.969,17.957 L67.76,18.018 C67.636,18.018 67.451,17.895 67.389,18.018 C67.08,17.772 66.032,18.329 66.279,17.586 C66.279,17.154 66.834,17.463 67.081,17.277 C67.39,17.216 67.575,16.908 67.76,16.722 C67.76,16.413 67.945,16.042 67.822,15.734 L67.884,12.156 C67.884,10.674 67.822,9.256 67.884,7.959 C67.884,7.033 67.884,5.737 67.822,4.75 C67.884,4.132 67.822,3.207 67.884,2.59 C67.761,2.035 67.637,1.479 67.144,1.294 C66.835,1.171 66.28,1.356 66.156,1.048 C66.094,0.801 66.156,0.615 66.403,0.554 L72.386,0.554 L72.386,0.553 Z M85.408,0.553 C85.84,0.738 85.593,1.602 85.655,2.034 C85.841,3.021 85.532,4.132 85.717,4.996 C85.532,5.367 85.779,5.613 85.717,5.983 C85.594,6.415 85.717,7.032 85.594,7.402 C84.73,7.464 85.162,6.353 85.038,5.798 C84.853,3.885 84.174,2.156 82.57,1.354 C82.014,1.169 81.089,1.169 80.718,1.601 C80.347,2.712 80.533,4.563 80.533,5.613 C80.409,5.983 80.595,6.107 80.533,6.539 L80.533,8.267 C80.595,8.452 80.471,8.946 80.903,8.884 C82.384,8.205 82.57,6.477 82.57,4.749 C82.57,4.502 82.694,4.378 83.064,4.44 L83.126,4.81 C83.003,5.612 83.25,6.6 83.064,7.464 C83.064,8.328 83.064,9.501 83.126,10.426 C83.0639996,11.4947682 83.0639996,12.5662318 83.126,13.635 C83.126,13.881 83.003,14.006 82.756,14.006 C82.324,13.635 82.632,12.586 82.447,12.031 C82.2,10.98 81.953,9.746 80.781,9.5 L80.595,9.623 C80.471,10.98 80.533,11.969 80.533,13.203 C80.533,14.314 80.595,15.732 80.533,16.844 C80.903,17.584 81.829,17.276 82.693,17.276 C84.235,16.598 84.791,14.747 85.1,13.018 L85.841,13.204 L85.841,17.77 L85.655,17.956 L78.496,18.017 C78.002,17.894 77.138,18.079 76.644,17.894 C76.459,16.908 77.631,17.585 78.002,17.216 C78.249,17.093 78.372,16.845 78.496,16.599 L78.496,2.035 C78.372,1.726 78.187,1.418 77.94,1.294 C77.508,1.109 76.582,1.48 76.644,0.739 L76.768,0.554 L85.408,0.554 L85.408,0.553 Z M94.357,0.553 C94.666,0.738 95.529,0.429 95.714,0.8 C95.714,3.083 95.775,5.058 95.714,7.28 C95.652,7.465 95.343,7.465 95.22,7.342 C94.974,4.935 95.034,2.096 92.814,1.232 C92.32,1.047 91.763,1.294 91.271,1.294 C90.962,1.603 90.714,1.85 90.714,2.344 L90.714,8.33 C90.776,8.515 90.839,8.639 91.023,8.639 C92.689,8.207 92.566,6.17 92.814,4.504 C92.875,4.38 93.183,4.38 93.306,4.504 L93.306,7.034 C93.431,7.158 93.306,7.158 93.306,7.404 C93.431,7.96 93.306,8.392 93.368,9.071 L93.368,10.737 C93.182,11.663 93.43,12.835 93.182,13.7 C93.059,13.823 92.813,13.761 92.75,13.575 C92.627,12.157 92.627,10.305 91.516,9.44 C91.393,9.317 91.022,9.317 90.838,9.44 L90.713,9.874 L90.713,13.884 L90.775,13.884 C90.837,14.872 90.404,16.478 91.146,17.095 C91.638,17.341 92.318,17.404 92.935,17.279 C94.292,16.847 94.664,15.427 95.156,14.193 C95.033,13.701 95.342,13.207 95.342,12.65 L95.465,10.675 C95.59,10.552 95.713,10.491 95.899,10.614 L96.022,10.737 C95.836,11.663 96.391,13.143 95.528,13.514 C95.466,13.76 95.157,13.76 95.157,14.069 C95.405,13.823 95.714,13.575 95.96,13.206 L96.083,13.206 L96.022,16.786 C95.899,17.218 96.208,17.895 95.713,18.018 C94.664,18.143 93.676,18.08 92.627,18.08 C90.652,17.957 88.8,18.018 86.887,18.018 C86.702,17.957 86.702,17.586 86.825,17.463 C87.381,17.277 88.121,17.402 88.491,16.846 C89.046,16.414 88.738,15.18 88.8,14.377 C88.862,13.02 88.677,11.231 88.8,9.996 L88.738,6.478 L88.738,2.096 C88.552,1.602 88.182,1.17 87.565,1.17 C87.195,1.17 86.763,1.232 86.886,0.738 C86.951,0.492 93.369,0.553 94.357,0.553 Z M125.77,2.343 C126.573,3.454 126.819,5.058 127.19,6.601 C127.622,9.81 127.313,13.514 126.079,15.859 C125.622633,16.7241587 124.940044,17.4492584 124.104,17.957 C123.364,18.143 122.252,18.203 121.758,17.711 C119.412,15.551 118.858,12.156 118.92,8.206 C119.043,5.552 119.846,3.022 121.389,1.232 C122.006,0.553 123.178,0.368 124.164,0.676 C124.781,1.109 125.398,1.664 125.77,2.343 Z M105.156,0.738 L105.279,0.923 L105.341,5.675 C105.155,6.478 105.341,7.465 105.218,8.267 C105.032,8.452 104.847,8.267 104.724,8.205 L104.538,5.181 C104.292,3.761 104.046,2.465 103.243,1.478 C103.057,1.292 102.626,1.292 102.503,1.478 L102.255,1.725 L102.255,16.722 C102.378,17.585 103.612,17.093 104.107,17.462 C104.169,17.771 104.046,17.956 103.798,18.017 C102.194,18.203 100.589,17.894 98.984,18.017 C98.615,18.079 98.615,17.648 98.738,17.462 C99.295,17.339 99.972,17.401 100.158,16.845 L100.219,9.933 L100.219,1.787 C100.096,1.601 99.973,1.417 99.727,1.355 C98.616,1.479 98.553,2.589 98.245,3.392 L97.753,6.725 C97.628,7.281 97.876,8.021 97.567,8.329 L97.196,8.267 L97.135,4.811 C97.135,3.577 97.073,2.034 97.196,0.8 C97.627,0.492 104.107,0.676 105.156,0.738 Z M118.486,0.676 C118.795,0.614 118.857,0.923 118.734,1.109 C118.117,1.232 117.5,1.232 117.129,1.664 C116.697,2.651 117.191,3.948 117.006,4.997 C117.068,5.183 116.944,5.553 117.006,5.861 C117.068,6.663 117.006,7.589 117.006,8.329 L117.006,15.242 C116.637,16.476 116.08,17.711 114.846,18.017 C113.612,18.328 112.809,17.771 112.254,17.154 C111.574,16.168 110.834,14.871 111.391,13.39 C111.637,12.833 112.069,12.525 112.686,12.464 C112.995,12.587 113.366,12.71 113.489,13.019 C113.427,13.574 113.798,14.191 113.427,14.562 C113.366,15.056 112.687,15.056 112.687,15.611 C112.749,16.351 113.058,16.968 113.675,17.216 C114.23,17.339 114.538,17.093 114.847,16.784 C115.279,15.55 115.033,13.573 115.033,12.216 L115.095,8.637 L115.095,2.28 C114.97,1.91 114.847,1.601 114.538,1.292 C114.169,0.984 113.304,1.416 113.118,0.922 L113.304,0.552 C115.217,0.553 116.574,0.738 118.486,0.676 Z M132.002,0.738 C132.25,0.614 132.744,0.553 132.928,0.862 C132.99,1.232 132.744,1.294 132.496,1.356 C132.127,1.356 131.879,1.541 131.633,1.726 C131.385,2.158 131.385,2.775 131.385,3.393 L131.385,10.429 L131.324,10.491 C131.447,12.343 131.324,13.575 131.447,15.489 C131.633,16.229 132.064,16.909 132.744,17.278 C133.299,17.403 134.039,17.34 134.41,16.909 C135.027,16.477 135.15,15.798 135.273,15.118 L135.273,8.947 L135.211,8.577 L135.273,3.146 C135.335,2.591 135.211,1.974 134.904,1.542 C134.593,1.295 134.039,1.295 133.668,1.233 L133.73,0.801 L137.001,0.739 C137.187,0.739 137.31,0.924 137.31,1.048 C137.31,1.356 136.816,1.171 136.693,1.294 C136.384,1.356 136.076,1.603 136.076,1.912 L135.89,2.899 L135.89,15.243 C135.767,16.292 135.15,17.155 134.41,17.772 C133.916,18.204 132.928,18.018 132.373,18.143 C131.139,17.895 130.09,17.032 129.719,15.86 C128.979,14.317 129.473,11.786 129.287,10.12 L129.287,2.159 C129.164,1.789 128.978,1.542 128.67,1.357 C128.361,1.233 127.807,1.357 127.807,0.987 C127.745,0.616 128.176,0.802 128.362,0.678 L132.002,0.738 Z M141.939,0.8 C143.791,0.553 145.642,0.923 146.382,2.404 C146.999,3.391 147.368,4.934 146.937,6.292 C146.382,7.28 145.951,8.514 144.839,9.007 C144.839,9.563 145.456,9.687 145.702,10.118 C145.95,10.612 146.196,11.044 146.196,11.722 L146.319,14.87 C146.319,15.425 146.257,16.35 146.813,16.599 C147.553,16.351 147.368,15.242 147.493,14.439 C147.554,14.377 147.8,14.377 147.862,14.439 C148.048,15.796 147.739,17.093 146.936,17.894 C146.504,18.08 145.95,18.328 145.456,18.142 C144.899,18.142 144.899,17.525 144.53,17.216 L144.344,15.425 L144.344,11.847 C144.282,11.044 144.221,10.118 143.604,9.687 C143.172,9.316 142.37,9.193 141.752,9.439 L141.629,9.625 C141.381,12.033 141.69,14.008 141.629,16.537 C141.69,16.908 141.752,17.34 142.184,17.525 C142.555,17.586 142.739,17.525 143.172,17.648 C143.233,17.771 143.172,17.957 143.233,18.142 L139.962,18.203 L138.173,18.08 C138.05,17.957 138.05,17.648 138.173,17.586 C138.73,17.586 139.161,17.402 139.47,17.094 L139.656,16.477 L139.656,2.281 C139.531,1.911 139.47,1.54 139.099,1.355 C138.79,1.231 138.236,1.417 138.236,0.985 C138.422,0.553 138.791,0.923 139.222,0.738 C140.148,0.8 140.889,0.8 141.939,0.8 Z M151.01,0.738 C151.135,0.862 151.381,0.923 151.444,1.109 C152.678,4.565 153.604,8.144 155.022,11.477 C155.393,11.416 154.899,11.045 155.147,10.86 C155.085,9.564 155.208,8.33 155.085,6.972 C155.208,6.232 155.085,5.676 155.147,4.874 C154.961,4.75 155.27,4.565 155.085,4.503 C155.208,3.762 155.023,2.713 155.023,1.849 C154.714,1.417 154.16,1.293 153.543,1.293 C153.543,1.231 153.42,0.861 153.666,0.8 L157.246,0.8 C157.492,0.862 157.369,1.109 157.369,1.293 C157,1.479 156.443,1.417 156.197,1.787 L155.949,2.404 L155.888,5.737 L155.888,16.291 C155.826,16.785 155.949,17.586 155.826,18.08 C155.703,18.203 155.394,18.266 155.271,18.142 C154.839,17.585 154.9,16.66 154.468,16.105 C153.79,14.439 153.419,12.525 152.739,10.921 L151.505,7.402 C151.321,6.785 151.011,6.291 150.827,5.736 L150.704,5.798 C150.518,6.538 150.518,7.155 150.642,7.896 L150.58,11.229 L150.58,16.721 C150.705,17.03 150.828,17.338 151.137,17.524 C151.446,17.71 152.186,17.338 152.186,17.893 L152.124,18.141 L148.669,18.202 C148.421,18.141 148.112,18.141 148.112,17.833 C148.36,17.339 149.409,17.833 149.655,17.216 C149.903,16.722 149.903,16.042 149.903,15.364 L149.841,8.266 L149.841,2.342 C149.718,1.478 148.855,1.416 148.175,1.231 C147.989,1.108 148.175,0.922 148.175,0.799 C149.098,0.676 150.023,0.738 151.01,0.738 Z M163.045,3.886 C163.293,5.614 163.848,7.157 164.033,8.946 L165.142,14.068 C165.513,15.302 165.451,16.908 166.624,17.525 C166.933,17.586 167.302,17.586 167.118,18.08 L167.056,18.203 C165.636,18.265 163.724,18.328 162.242,18.142 C161.933,17.277 162.984,17.648 163.353,17.402 C163.662,17.154 163.724,16.66 163.662,16.105 C163.476,15.242 163.353,14.316 162.984,13.636 C161.996,13.574 160.824,13.574 159.959,13.698 C159.713,14.007 159.65,14.499 159.59,14.993 C159.465,15.733 158.973,16.845 159.713,17.462 C160.022,17.771 161.256,17.216 160.824,18.142 C159.836,18.328 158.664,18.265 157.676,18.265 C157.367,18.142 156.69,18.388 156.873,17.771 C156.873,17.402 157.49,17.648 157.676,17.525 C158.231,17.216 158.479,16.66 158.602,16.105 L159.342,11.908 L160.268,6.601 L160.825,3.516 C161.009,2.59 161.134,1.541 161.565,0.801 L162.368,0.863 L163.045,3.886 Z M172.426,0.8 C172.672,0.862 172.92,0.923 172.92,1.232 C172.797,1.664 171.994,1.418 171.686,1.664 C171.254,1.849 171.254,2.405 171.131,2.775 L171.131,16.537 C170.945,16.969 171.254,17.277 171.5,17.525 C171.994,17.834 173.105,17.771 173.723,17.586 C174.709,16.969 174.895,15.734 175.327,14.625 L175.759,11.416 C175.821,11.291 176.068,11.291 176.253,11.416 L176.253,17.154 L176.191,17.154 C176.191,17.463 176.253,17.957 176.13,18.265 C175.821,18.388 175.327,18.265 175.081,18.327 L174.895,18.265 L171.563,18.327 C170.266,18.265 168.846,18.45 167.797,18.141 C167.674,18.079 167.674,17.832 167.736,17.709 C168.105,17.461 168.908,17.77 169.093,17.215 L169.154,16.598 L169.154,2.035 C168.845,1.418 168.168,1.356 167.55,1.356 C167.55,1.109 167.427,0.862 167.673,0.801 L172.426,0.801 L172.426,0.8 Z" id="path-1"></path>
    </defs>
    <g id="---Homepage-Refresh" stroke="none" stroke-width="1" fill="none" fill-rule="evenodd" opacity="0.3">
        <g id="Desktop:-Homepage-Refresh---hero-options" transform="translate(-254.000000, -6086.000000)" fill-rule="nonzero">
            <g id="wall-street-journal" transform="translate(254.000000, 6086.000000)">
                <g id="Shape">
                    <use fill="#000000" fill-rule="evenodd" xlink:href="#path-1"></use>
                    <path stroke="#000000" stroke-width="0.3" d="M29.221,0.282 L29.221,0.221530172 L29.4186647,0.287774571 C29.7186943,0.388325035 29.840543,0.530536505 29.7664786,0.822309435 C29.7165428,1.17024984 29.4996606,1.24260897 28.9526906,1.26624547 C28.9521793,1.26626756 28.9521793,1.26626756 28.9516681,1.26628966 C28.7306001,1.27584257 28.6386023,1.28532232 28.5544803,1.31328712 C28.0847369,1.47003734 27.9674984,1.83760568 27.9551358,2.7789901 C27.9546535,2.81683996 27.9546535,2.81683996 27.9541994,2.85478515 C27.9496216,3.23724136 27.9425896,3.4034395 27.916,3.578 L27.916,15.799 C27.916,15.8515788 27.9155031,15.8942341 27.9140368,15.988966 C27.9138472,16.0012306 27.9138472,16.0012306 27.9136603,16.0134713 C27.9049661,16.5858698 27.9515656,16.8038344 28.1998593,16.9498727 C28.2921336,17.0884709 28.4815565,17.1122786 28.9948602,17.0757332 C28.9961788,17.0756393 28.9961788,17.0756393 28.9974978,17.0755454 C29.2937586,17.0544539 29.4242661,17.050985 29.5314373,17.0710248 C29.866503,17.0154066 30.0913195,16.8323528 30.4553034,16.3895378 C30.51326,16.3187729 30.51326,16.3187729 30.5716371,16.2477409 C30.7481913,16.0340692 30.8683535,15.9076272 30.9542904,15.8825143 C31.0183912,15.6475934 31.0863402,15.4521986 31.2204034,15.0982171 C31.2556124,15.0053726 31.2556124,15.0053726 31.29031,14.9133065 C31.438388,14.518645 31.5173197,14.2648392 31.5723196,13.9669192 C31.7142641,13.4935151 31.7682745,13.0660026 31.8431492,12.0743716 C31.8474025,12.0180349 31.8474025,12.0180349 31.851682,11.9616244 C31.9292751,10.9414183 32.0035043,10.4232287 32.1914248,9.88643722 L32.297036,9.79037518 C32.6088221,9.71337538 32.732978,9.85506262 32.853,10.245 L32.82739,17.013172 C32.9128008,17.1399106 32.9123398,17.281062 32.8631407,17.4751192 C32.8504646,17.5232485 32.8504646,17.5232485 32.8374864,17.5686531 C32.8004656,17.6975789 32.791,17.7379477 32.791,17.775 L32.6734001,17.921459 L32.085,18.048 L25.199036,18.0436248 C25.1501853,18.0315605 25.1013446,18.0253372 24.9892315,18.0150655 C24.9680744,18.0131292 24.9680744,18.0131292 24.9464942,18.0111068 C24.626662,17.9807523 24.4617884,17.9213444 24.3446196,17.63838 C24.3761942,17.2920781 24.5543696,17.1571321 25.0017067,16.9894716 C25.0141193,16.9848206 25.0141193,16.9848206 25.0264508,16.9801961 C25.4063276,16.83764 25.517,16.7423806 25.517,16.48 L25.517233,7.78535783 C25.4917576,7.32885414 25.4852207,6.80623743 25.4918681,6.13168078 C25.4940789,5.90734309 25.4970839,5.70624394 25.5032437,5.34238693 C25.5140782,4.70239328 25.517,4.48482594 25.517,4.197 C25.517,3.99464063 25.5245905,3.83359916 25.5492269,3.42892328 C25.556792,3.30442681 25.556792,3.30442681 25.5638209,3.1800405 C25.6217219,2.11746656 25.530355,1.58162629 25.128934,1.27906602 C25.0709755,1.22110757 24.9498287,1.20287153 24.6927102,1.21007527 C24.6699526,1.21073242 24.6699526,1.21073242 24.6469807,1.21143633 C24.372065,1.21986739 24.2634847,1.21429998 24.1416784,1.16383985 C23.9483968,1.08376999 23.8686163,0.905015385 23.9280544,0.611482719 C24.0128341,0.443290718 24.1121941,0.360535399 24.371,0.282 L29.221,0.282 Z M54.2780105,1.24007788 C54.3126471,1.26433899 54.3495233,1.27802811 54.3903202,1.28298015 C54.4702535,1.29268268 54.5636396,1.26936921 54.6731387,1.21862304 C54.7057553,1.20350724 54.7375146,1.18717584 54.7531493,1.18671906 C54.7970208,1.14302518 54.8210785,1.06827306 54.8417279,0.91851444 C54.8451752,0.893080941 54.8451752,0.893080941 54.8486029,0.866991622 C54.9010797,0.468338211 55.0106287,0.296853558 55.3825089,0.343931233 L55.6915089,0.405931233 L55.812,0.553 L55.812,7.033 L55.729082,7.16716408 C55.7555723,7.15391893 55.74899,7.18037508 55.744359,7.24921396 C55.7441747,7.25195323 55.7441747,7.25195323 55.7439884,7.25471719 C55.7275367,7.49851896 55.6830465,7.615 55.477,7.615 L55.106,7.615 L54.9562059,7.472857 C54.7799211,4.11198035 54.379861,2.62300758 52.9913486,1.72972609 C52.6981615,1.5491868 52.362092,1.45019205 52.0335069,1.44247768 C51.4549138,1.49088898 51.0514492,1.85573754 50.6665569,2.54651926 C50.2959576,3.12901216 50.3545455,4.3536895 50.7240473,4.97079646 C51.1796243,5.60840752 51.68558,6.05623476 52.7581818,6.85764465 C52.8395176,6.91838136 52.8395176,6.91838136 52.9208974,6.97913706 C53.5575994,7.45469642 53.8825314,7.71348554 54.2288612,8.04080481 C54.2888607,8.10409869 54.5862032,8.415661 54.6697913,8.50402076 C56.0823525,9.99721778 56.6919076,11.0232831 56.7384528,12.5121996 C56.9241986,14.6809069 56.1952611,16.5365307 54.6992856,17.7713952 C53.8760977,18.3403482 52.5961809,18.4342758 51.5678617,18.018852 L50.2995248,17.1703646 C50.201324,17.131275 50.1719234,17.1487979 50.090756,17.2759531 C50.074647,17.3014165 50.074647,17.3014165 50.0573547,17.3286171 C50.040367,17.3550363 50.0253481,17.3770076 50.0104788,17.3963862 C50.0023766,17.8242792 49.8986544,18.074944 49.6188645,18.2142726 L49.5109242,18.2242663 L49.0789242,18.1012663 L48.9700225,17.9595974 L48.908,14.377 L48.908,10.365 L48.9917877,10.2304046 C49.15754,10.1488651 49.51446,10.1488651 49.6802123,10.2304046 L49.7638232,10.357719 C49.7698788,10.4830781 49.7698788,10.4830781 49.7758642,10.6085712 C49.7850325,10.8009592 49.7850325,10.8009592 49.7944301,10.9933466 C49.9561191,14.2620007 50.3590308,15.7594878 51.7332568,16.720227 C52.4125375,17.173488 52.9971817,17.3330539 53.6289392,17.1386926 C54.6394696,16.7144767 55.141,15.6045082 55.1417516,14.0829974 C55.0226038,12.8972842 54.5546665,12.0050269 53.694314,11.3254817 C53.2545364,10.7926454 52.830197,10.4239099 51.8698428,9.68225156 C51.8358805,9.6560251 51.8358805,9.6560251 51.8018931,9.62977694 C50.6828337,8.76544223 50.1775517,8.30890684 49.6838689,7.62215003 C49.5229059,7.42941116 49.4478707,7.25263179 49.3312094,6.86987402 C49.3084205,6.79498287 49.3084205,6.79498287 49.2853278,6.7212815 C49.2291663,6.5448729 49.1790499,6.42035491 49.099441,6.2734835 C48.5173836,4.35184491 49.1368204,2.24575979 50.517795,0.797192456 C51.1659323,0.365100932 52.0683663,0.162471064 52.8080953,0.347584998 C53.3593996,0.529896114 53.862016,0.835096318 54.2780105,1.24007788 Z M6.56385329,11.5337605 C6.77356833,10.6277234 6.97133349,9.67703481 7.17516583,8.61034608 C7.34194118,7.73758283 7.46681985,7.04389051 7.74683825,5.52471562 C7.6601779,5.1490313 7.61730028,4.82877993 7.54116974,4.09893908 C7.53930475,4.08105959 7.53930475,4.08105959 7.5374397,4.06318632 C7.34669685,2.23562211 7.10630979,1.53158202 6.2829542,1.12018219 L6.21079072,1.04186392 C6.05004479,0.641295425 6.29512322,0.342 6.73073628,0.342384719 C7.07237604,0.366900535 7.62065775,0.372907423 8.82653672,0.372996959 C8.88797675,0.373 8.88797675,0.373 8.949375,0.373 C10.2771475,0.373 10.7631817,0.378099483 11.0536399,0.404621441 L11.1797546,0.499514706 C11.2553428,0.693398124 11.2553428,0.908601876 11.1797546,1.10248529 L11.0926997,1.18843767 C10.9950846,1.2250681 10.8925642,1.25415046 10.7685756,1.28242547 C10.7132986,1.29503111 10.666509,1.30484796 10.5676634,1.32505086 C10.1203739,1.41681274 9.94821264,1.48940033 9.81098943,1.68122216 C9.48992438,2.20655834 9.51386733,2.62326236 9.79763181,3.71489904 C9.9771726,4.4055891 10.0392133,4.75707849 10.0163548,5.15495408 L10.755633,9.0393966 C10.7993204,9.24209689 10.8281493,9.41835187 10.8823603,9.78896385 C10.8947545,9.87375954 10.8947545,9.87375954 10.9072602,9.95838468 C11.005695,10.620379 11.1018763,11.0281757 11.2688266,11.3478027 L12.132182,7.60838088 C12.403966,6.69124761 12.5675124,5.92817522 12.8946762,4.19018104 C12.8955585,4.18549381 12.8955585,4.18549381 12.8964409,4.18080651 C13.0601779,3.3109883 13.1367976,2.91778995 13.2405533,2.43454425 C13.3436337,1.96942559 13.2152134,1.64806256 12.8491493,1.40028094 C12.7373196,1.28890397 12.5940705,1.25544479 12.2208086,1.22996049 C12.2014937,1.22864209 12.2014937,1.22864209 12.1820417,1.2272989 C12.048675,1.21803459 11.9670971,1.21009763 11.8815997,1.1960021 L11.7662454,1.10248529 C11.6906572,0.908601876 11.6906572,0.693398124 11.7662454,0.499514706 L11.906,0.404 C12.1539032,0.404 12.2425769,0.403046813 13.3055623,0.390233119 C13.5735021,0.387032307 13.5735021,0.387032307 13.8463409,0.384035278 C15.1602826,0.370095036 15.8718624,0.373566684 16.0884342,0.411697505 C16.3657336,0.504130659 16.3657336,0.857942944 16.2371641,1.11508204 L16.1355396,1.19442806 L16.1354557,1.19444666 C16.1321123,1.19518763 16.1321123,1.19518763 16.1287697,1.19592843 C15.3376283,1.37126692 15.0252943,1.48872721 14.8244552,1.71765292 C14.6613129,2.15284611 14.5267814,2.6164808 14.3822745,3.21235229 C14.3319272,3.41995849 14.3122863,3.50484669 14.2024385,3.98479609 C14.1257233,4.31998177 14.0795602,4.51659041 14.0285608,4.72093649 L12.9791037,9.53696609 C12.7329975,10.5955819 12.6930295,10.7629257 12.0223574,13.557134 C11.5923125,15.3488215 11.330853,16.455992 11.0451171,17.6697388 C10.8762744,17.925062 10.4579163,17.9550483 10.2439417,17.7389222 C10.0180573,17.437336 9.93074234,17.1297147 9.80508319,16.4031557 C9.79670206,16.3546761 9.79670206,16.3546761 9.78829942,16.3063293 C9.74158585,16.0383708 9.70849615,15.875494 9.66123092,15.699774 L8.73657815,10.3975675 L8.33081762,8.57328788 L7.6718461,11.8155978 C7.29492474,13.6245349 6.92466265,15.4348533 6.56192646,17.2418549 C6.47882433,17.7364465 6.11759451,17.9917156 5.56930749,17.8550893 C5.24141341,17.7602126 5.16890008,17.5582379 5.14574337,17.0763322 C5.1447246,17.0551204 5.1447246,17.0551204 5.14368405,17.0341334 C5.13562084,16.8740934 5.12455362,16.7854235 5.09280285,16.6831863 L4.78463495,14.7129918 L3.85825507,9.83591206 L3.24025877,6.31139192 C3.1244194,5.42287265 2.96154044,4.62849014 2.62079112,3.17166049 C2.55933761,2.90928855 2.55933761,2.90928855 2.49832926,2.64824638 C2.45214567,2.45014022 2.41426628,2.2859256 2.3770517,2.12072451 C2.34678699,1.93962437 2.23306704,1.79050656 1.97655231,1.55709797 C1.87575427,1.46656893 1.81806874,1.41419783 1.76897866,1.36663907 C1.6530396,1.33766039 1.54742287,1.33232992 1.33180357,1.33511702 C1.28101479,1.33577505 1.28101479,1.33577505 1.229,1.336 C0.945487528,1.336 0.750952512,1.29923467 0.505505439,1.15263573 C0.28183558,0.927147422 0.28183558,0.434784679 0.674,0.341 L5.364,0.341 L5.41433333,0.391333333 L5.43108204,0.357835921 C5.44518333,0.364886565 5.45606445,0.369151472 5.49424426,0.382811861 C5.52172122,0.392390375 5.52172122,0.392390375 5.55315973,0.403949589 C5.72441357,0.468961144 5.83138353,0.569698273 5.87188826,0.86004937 C5.77674904,1.08221231 5.63418935,1.19926189 5.34239085,1.35717174 C5.32066133,1.36890749 5.32066133,1.36890749 5.29930504,1.38041851 C5.08046703,1.49849056 4.9954964,1.5634174 4.94223637,1.66993727 C4.78601152,1.98323142 4.76792013,2.6132204 4.89390029,3.05898993 L5.63356526,7.4340841 C5.64092713,7.46789994 5.64092713,7.46789994 5.64828842,7.50174501 C5.6962923,7.72250229 5.86016637,8.48061584 5.8754917,8.55132454 C5.96643315,8.97091412 6.03755123,9.29542295 6.10796587,9.61060592 C6.26990767,10.3354737 6.41611369,10.955074 6.56385329,11.5337605 Z M19.5868323,0.924208949 C19.6766443,1.52492856 19.7912446,2.08170495 19.9958866,2.96528023 C20.0351305,3.13434056 20.0351305,3.13434056 20.0745918,3.30373241 C20.3455178,4.46725008 20.4661892,5.04766412 20.5689767,5.7690359 L21.8645606,12.1240626 C21.8720163,12.1583874 21.8720163,12.1583874 21.8793762,12.1927054 C21.9828627,12.6767653 22.041411,13.0106122 22.1949781,13.9461071 C22.3818612,15.0845551 22.4889339,15.6334732 22.6633025,16.2435658 C22.8411005,16.7769599 23.1815402,17.0765557 23.7075182,17.1277042 L23.843,17.277 C23.843,17.308331 23.853118,17.3403268 23.8808826,17.3994662 C23.97061,17.5905886 23.9862447,17.6693533 23.8805464,17.7957089 C23.8714973,17.8062206 23.8714973,17.8062206 23.8604911,17.8176378 L23.6744911,18.0016378 L23.569,18.045 L19.928,18.045 L19.80361,17.978828 C19.7951554,17.9662824 19.7037666,17.953 19.48025,17.953 C19.4374035,17.9530005 19.4374035,17.9530005 19.3933502,17.9527348 C19.1313115,17.950363 18.9767001,17.9250197 18.8511563,17.8311171 L18.7939068,17.7403869 C18.7357429,17.4492529 18.8055668,17.2436319 19.0000944,17.1339098 C19.1299743,17.060652 19.2509306,17.0442555 19.5474697,17.0326329 C19.5632009,17.0320165 19.5632009,17.0320165 19.5788267,17.031393 C19.9455359,17.0166226 20.0612946,16.9731733 20.130934,16.739934 C20.248411,16.6224569 20.2969551,16.4245619 20.2863238,16.149239 C20.2815164,16.0247399 20.2660977,15.8974472 20.2382332,15.7266185 C20.225241,15.6483829 20.225241,15.6483829 20.2268794,15.618169 C20.1150448,15.3948616 20.0747679,15.1885152 20.0194939,14.7069464 C20.0166731,14.682366 20.0166731,14.682366 20.0138492,14.657857 C19.9404302,14.0220425 19.8520179,13.7531523 19.682,13.601 L17.2798645,13.5852726 L17.1098254,13.669948 C17.087037,13.952597 17.0295887,14.2075821 16.8847409,14.7549933 C16.8108286,15.0343242 16.7762728,15.1724126 16.7424124,15.3333779 C16.5996339,16.0121185 16.6322149,16.4999111 16.8712327,16.9111749 C16.9395178,16.962596 17.040557,16.9932652 17.2337841,17.0274161 C17.2631202,17.0325585 17.2631202,17.0325585 17.2928545,17.0377015 C17.5845667,17.0882375 17.7043709,17.1246505 17.8133515,17.2342203 L17.8549483,17.3647245 L17.7929483,17.7357245 L17.6476005,17.8609775 L14.1743187,17.9143409 C13.9084869,18.002712 13.728275,17.8535843 13.7005375,17.6032705 C13.6809571,17.4265686 13.7365481,17.2103198 13.835934,17.110934 L13.9543065,17.0675057 C14.5278203,17.114718 14.8879247,16.9232701 15.3476084,16.4768041 C15.551304,16.0118878 15.646086,15.5832321 15.7987113,14.6092919 C15.8215726,14.4632947 15.8215726,14.4632947 15.8449584,14.3165944 C15.9234353,13.828994 15.9900228,13.4936572 16.0778192,13.1817095 L16.7571793,8.85952364 L17.375162,5.27436331 C17.5051789,4.65120777 17.6001519,4.10513957 17.7767928,3.01155463 C17.9734602,1.79398474 18.0500736,1.34401458 18.1769378,0.708458316 L18.1769497,0.708398973 C18.2255621,0.466905338 18.5897296,0.31075 18.94925,0.31075 C19.3603875,0.31075 19.6459134,0.527488496 19.5868323,0.924208949 Z M37.3204589,14.4804551 C37.4060257,14.7486403 37.4131938,15.0532865 37.3819013,15.6106142 C37.3801783,15.6411662 37.3801783,15.6411662 37.3784442,15.6716355 C37.3455578,16.2493375 37.3493777,16.4857772 37.4187686,16.7113047 C37.5012584,16.9794048 37.6751676,17.1137635 38.0405089,17.1319312 C38.3930811,17.2026739 38.9360475,17.1665934 39.1513652,17.0388141 C40.1696775,16.2251546 40.6224868,15.0048924 40.9503321,12.804559 C41.0182244,12.4878508 41.0421237,12.2101536 41.072163,11.57045 C41.0753792,11.5019394 41.0753792,11.5019394 41.078677,11.4332235 C41.1107671,10.7719921 41.1525213,10.398427 41.2607212,10.0179681 L41.3513043,9.9189401 C41.5448984,9.84472072 41.7591016,9.84472072 41.9526957,9.9189401 L42.049,10.059 L42.0460688,17.6175089 L41.9840688,17.9265089 L41.837,18.047 C41.5880896,18.047 41.4766742,18.0470488 41.3376125,18.0472915 C40.268538,18.0491575 39.6007978,18.0642752 39.0573569,18.1089767 L35.542,18.047 L33.629,18.047 C33.3938002,18.047 33.278159,17.8843997 33.2783751,17.657732 C33.2784981,17.5287019 33.3106608,17.3908198 33.3637746,17.2323353 L33.4912421,17.1307277 C33.5870059,17.12126 33.6666925,17.1156778 33.8402699,17.1051694 C33.880094,17.1027596 33.880094,17.1027596 33.9197708,17.1003138 C34.5870374,17.0587851 34.8783015,16.9736043 35.0270674,16.7493409 C35.1382807,16.3324033 35.1641399,15.9064161 35.1605486,15.053786 C35.160348,15.0080521 35.160348,15.0080521 35.1601312,14.962278 C35.1568618,14.2719555 35.1643913,13.9729545 35.2085248,13.6613336 C35.1551399,13.2897918 35.1525862,12.9950676 35.176084,12.2933549 C35.1991262,11.6052499 35.196515,11.2828344 35.1454451,10.8514528 L35.207,10.06 L35.2099312,2.19050894 C35.1534921,1.90922379 34.9818925,1.56602456 34.8110743,1.39457526 C34.7385178,1.30986065 34.5746047,1.27430478 34.2519364,1.2651382 C34.204351,1.26388516 34.204351,1.26388516 34.1563657,1.26281559 C33.7844085,1.25450613 33.6469121,1.23795034 33.5135909,1.148826 C33.3030429,1.00807605 33.3080459,0.760082626 33.4982213,0.42153624 L33.629,0.345 L38.787,0.345 L38.787,-0.138828661 L39.0709456,0.424482719 C39.2270928,0.734258643 39.2739241,0.921836887 39.0598979,1.1230819 C38.8924801,1.19745635 38.7216505,1.23107571 38.4171024,1.26580738 C38.3837815,1.2695822 38.3837815,1.2695822 38.3507448,1.27327944 C37.7691543,1.33840842 37.5927478,1.41489301 37.5446859,1.67470259 C37.4863265,2.57503776 37.453057,3.39932007 37.4364741,4.2907898 C37.4234593,4.99043759 37.421,5.53882273 37.4209949,6.91223502 L37.3589949,14.442235 L37.3204589,14.4804551 Z M62.233764,14.742236 C62.2422136,14.8918374 62.2448569,15.0394403 62.246931,15.3284185 C62.2472278,15.3697706 62.2472278,15.3697706 62.247548,15.4110561 C62.2557287,16.427395 62.3508448,16.8583286 62.7232659,17.0949973 C62.8107772,17.1575921 62.9249472,17.1816066 63.1011843,17.181535 C63.1404399,17.181519 63.1714471,17.1807366 63.2441198,17.1782912 C63.7622045,17.1607129 63.9793253,17.2508621 64.02,17.711 C64.02,17.9145054 63.9252003,18.0510089 63.7555604,18.1040253 C63.6497412,18.1370963 63.5621606,18.1372043 63.3407597,18.120876 C63.3160943,18.1190591 63.3160943,18.1190591 63.2918028,18.1173481 C63.1117287,18.1049396 63.0172014,18.1125562 62.883,18.168 L61.526,18.168 L61.488877,18.130877 C61.3147225,18.1857693 61.1492252,18.1792052 60.8618962,18.1364264 C60.5806017,18.094546 60.4745289,18.0944123 60.2665997,18.1660021 C60.067223,18.1331319 59.7177038,18.115958 59.2311072,18.1099021 C59.0387145,18.1075077 58.8811825,18.107 58.5153353,18.0992254 C58.2393411,18.0067301 58.2393411,17.5919959 58.3666181,17.3353553 L58.4738422,17.254479 C58.5629372,17.23836 58.5629372,17.23836 58.651704,17.2228769 C58.6763472,17.2185815 58.6763472,17.2185815 58.7009307,17.2142876 C59.5431354,17.0670077 59.8642231,16.9093392 60.017,16.476 L60.0276354,1.71947524 C59.9425529,1.50573141 59.8536531,1.44646492 59.6506591,1.37693264 C59.0001007,1.55046172 58.7101625,2.04759543 58.3945471,3.21876507 C58.3667645,3.32238246 58.3667079,3.32259355 58.3391915,3.42593815 C58.3386569,3.42787239 58.3387022,3.42767132 58.3387821,3.42732645 C57.9441022,5.16221731 57.8053739,6.33704637 57.8859113,7.85704915 C57.8694441,7.88181691 57.8582033,7.91761575 57.8477821,7.97855887 C57.8439575,8.00173465 57.8439575,8.00173465 57.8401198,8.02660861 C57.7992732,8.29047356 57.7137559,8.418 57.4043353,8.41022543 L57.0343353,8.28622543 L56.932,8.144 L56.932,0.676 L57.0379626,0.532609945 C57.721199,0.32277704 61.9202749,0.303381036 65.0467806,0.403076201 L65.1813646,0.497524762 L65.315,0.862 L65.3072254,8.00666474 C65.2396991,8.20815472 65.1401973,8.29360643 64.923082,8.40216408 L64.8001361,8.40720928 L64.4911361,8.28320928 L64.3970584,8.13981621 C64.4571216,5.98722727 64.1680268,4.02542485 63.5407746,2.20566474 C63.4344636,1.88844664 63.1650287,1.60371945 62.881,1.444 C62.477424,1.444 62.3403321,1.47627998 62.29,1.541 L62.29,14.686 L62.2337636,14.7422364 Z M58.3391915,3.42593815 C58.3391353,3.42614911 58.339079,3.4263605 58.3390226,3.42657232 C58.3387502,3.42759405 58.3386139,3.42810491 58.3386438,3.42794342 Z M73.1346911,8.91651845 C73.116683,9.01647585 73.1503427,9.06640685 73.2632576,9.15273499 C73.271033,9.15867965 73.4003471,9.253073 73.4425298,9.28678639 C73.540984,9.36547325 73.6180122,9.44460196 73.6451724,9.50293043 C74.4288418,10.0625647 74.696,11.1600276 74.696,12.773 L74.5042039,12.773 C74.5192858,12.7969087 74.5534868,12.809 74.608,12.809 L74.7577387,12.9501499 C74.7756164,13.2526284 74.7752588,13.5382595 74.7628417,14.0360908 C74.7615515,14.0873996 74.7615515,14.0873996 74.7602419,14.1386367 C74.7340854,15.1618633 74.7510189,15.5948015 74.875548,16.0614802 C74.9148864,16.191236 75.0162579,16.2928815 75.0724911,16.3289312 C75.1926298,16.3048257 75.2615685,16.2330892 75.3487986,16.0631763 C75.3709334,16.0193612 75.3709334,16.0193612 75.3937391,15.9736341 C75.411679,15.9380179 75.4268372,15.9093015 75.4416254,15.8836819 C75.4183769,15.6321579 75.4278459,15.3604129 75.4638949,15.0248077 C75.4769739,14.9030458 75.4907641,14.7938955 75.5170742,14.5972062 C75.5494188,14.3554046 75.5584235,14.285679 75.5709207,14.1734059 L75.5983719,13.9267882 L75.8039786,14.0657117 C75.8046873,14.06618 75.8046873,14.06618 75.8052113,14.0664973 C75.8091939,14.0688602 75.824087,14.0652128 75.8895169,14.0289283 C75.9897803,13.9733266 76.021544,13.9588946 76.0882657,13.9543033 C76.2008279,13.9465575 76.2912848,14.0091594 76.3634313,14.1769511 C76.525514,16.0330591 76.3011618,17.2594856 75.4328937,17.8950145 C74.9977663,18.1835357 74.5898656,18.2897955 74.0119921,18.2229977 C73.4071182,18.0465403 72.8913617,17.6478456 72.5488345,17.0533879 L72.362,15.858 L72.3653172,11.4463715 C72.3424679,11.3393453 72.3424679,11.3393453 72.3193592,11.2325124 C72.0855365,10.160389 71.8338239,9.69241389 71.2307962,9.52037906 C70.7468314,9.35992715 70.2813901,9.3295141 70.1159456,9.44551728 L70.008,9.624 L70.0001865,16.4282192 C70.1509995,16.8770095 70.2592344,17.0539473 70.443601,17.1299497 C70.4852217,17.1383279 70.5231418,17.1435754 70.6087577,17.1537112 C70.61806,17.1548123 70.61806,17.1548123 70.627443,17.1559268 C71.0909227,17.2110899 71.2961676,17.3496556 71.2178075,17.854205 L71.0938075,18.040205 L70.9718508,18.1069729 L67.76,18.168 C67.7064404,18.168 67.667807,18.1594947 67.5822493,18.1351729 C67.5818564,18.1350612 67.5818564,18.1350612 67.5814642,18.1349497 C67.509061,18.1143666 67.5084036,18.1143666 67.5229456,18.0855173 L67.4399059,18.2502574 L67.2955739,18.1353523 C67.2455629,18.0955377 67.1254933,18.0899733 66.872571,18.1162044 C66.8566917,18.1178578 66.8566917,18.1178578 66.8407151,18.1195361 C66.5431364,18.1508076 66.431597,18.1530506 66.3064846,18.1041881 C66.0974866,18.0225641 66.0432344,17.8197117 66.129,17.586 C66.129,17.4060016 66.2069638,17.279945 66.3511959,17.2240917 C66.4417454,17.1890268 66.5150754,17.1855198 66.6966393,17.1917751 C66.7197214,17.1925689 66.7197214,17.1925689 66.7422344,17.1932421 C66.8809286,17.1970858 66.9516489,17.1866325 67.051949,17.1298401 C67.1870158,17.1031764 67.2993044,17.016579 67.4592622,16.8342402 C67.5277072,16.7543202 67.5731397,16.7017932 67.611582,16.6601987 C67.6161531,16.5752408 67.6312736,16.489369 67.6651701,16.3243689 C67.6776126,16.26368 67.6776126,16.26368 67.688836,16.2046754 C67.7235511,16.0151563 67.7238921,15.892785 67.6720225,15.7314012 L67.734,12.156 C67.734,11.7437428 67.730375,11.4025094 67.7202378,10.6996075 C67.6995244,9.26336861 67.6995244,8.6766233 67.734,7.959 C67.734,7.14797305 67.7322245,6.73241788 67.723988,6.2279305 C67.7147125,5.65980518 67.6981709,5.17133007 67.6727492,4.73502662 C67.6978556,4.48477257 67.7029999,4.24230797 67.703,3.67150607 C67.703,3.67056554 67.703,3.67056554 67.703,3.669625 C67.703,3.08571339 67.7082192,2.83904299 67.7375533,2.62245575 C67.5645808,1.84196988 67.4345482,1.56324269 67.0885248,1.43336462 C67.0168879,1.40484898 66.9259212,1.39577194 66.7403415,1.3934771 C66.7278139,1.39332594 66.7278139,1.39332594 66.7152019,1.39318125 C66.2849419,1.388244 66.1142875,1.34603351 66.0105133,1.08451892 C65.9259024,0.74743976 66.0436905,0.488229738 66.403,0.404 L72.236,0.404 L72.236,0.352442722 L72.4283844,0.40911266 C73.5217192,0.731172198 74.4149934,1.43874589 74.9359416,2.42052814 C75.4980962,4.18767128 75.516038,6.23892933 74.7298754,7.30403272 C74.2416819,8.00129054 73.7473409,8.51570603 73.1346911,8.91651845 Z M74.5032823,12.6954777 C74.503289,12.6954632 74.5032958,12.6954487 74.5033025,12.6954342 C74.5030976,12.6960487 74.5028966,12.6966609 74.5026995,12.6972705 Z M80.8102966,9.66045792 L80.7379625,9.70829173 C80.6784136,10.3873683 80.6619968,10.987039 80.669116,11.8003671 C80.6703433,11.9405779 80.671758,12.0548213 80.6752364,12.3118375 C80.6809535,12.7359401 80.683,12.9440837 80.683,13.203 C80.683,13.5085637 80.6860995,13.7477887 80.6967572,14.3911451 C80.7016483,14.6864017 80.7040884,14.8452437 80.7062767,15.0243877 C80.7157026,15.796037 80.7103511,16.3576232 80.6671641,16.776918 C80.8669044,17.1763986 81.16958,17.2331026 82.0897446,17.1582742 C82.2479274,17.1454106 82.3289548,17.1393871 82.4234259,17.1341598 C82.5204443,17.1287915 82.6086621,17.126 82.632625,17.138687 C83.8971632,16.5826838 84.5517544,15.2330729 84.9523396,12.9916107 L85.1365189,12.8725133 L85.8775189,13.0585133 L85.991,13.204 L85.991,17.77 L85.947066,17.876066 L85.761066,18.062066 L85.6562781,18.1059946 L78.4597583,18.162556 C78.2910925,18.1205602 78.11116,18.1153512 77.6668111,18.1264475 C77.6202539,18.1276093 77.6202539,18.1276093 77.5734233,18.1287109 C77.0877069,18.1397987 76.8258081,18.1222595 76.5913938,18.0344727 L76.4965726,17.9216613 C76.4325897,17.5806498 76.509247,17.3518257 76.7281896,17.2433508 C76.8750746,17.1705768 77.0095517,17.1641701 77.3460395,17.1817454 C77.3609853,17.1825258 77.3609853,17.1825258 77.3758519,17.1832928 C77.6867914,17.1992405 77.8232475,17.1822278 77.9351355,17.0817274 C78.0953623,17.0019383 78.1849592,16.8805898 78.3460266,16.5632156 L78.3567907,2.09086392 C78.2237597,1.75935925 78.0540369,1.51909043 77.8809506,1.43188826 C77.7873272,1.39179491 77.6738925,1.38240157 77.398306,1.38255553 C77.0772259,1.38273491 76.9437717,1.3716838 76.7973951,1.30899937 C76.577017,1.2146245 76.4701528,1.01774859 76.5194001,0.655484376 L76.6434001,0.470484376 L76.768,0.404 L85.258,0.404 L85.258,0.325588284 L85.4670494,0.415111741 C85.7758927,0.547371029 85.8416107,0.845791158 85.8145751,1.40665389 C85.8109949,1.47632962 85.8109949,1.47632962 85.8070225,1.54463144 C85.7913398,1.81334427 85.7893775,1.91443759 85.8024054,2.00622147 C85.8606642,2.31536871 85.8762355,2.64443206 85.8624534,3.05638024 C85.8576008,3.20142456 85.8510989,3.32289009 85.8360062,3.57174971 C85.7906155,4.32018821 85.7905958,4.6232928 85.8512364,5.06293727 C85.7884024,5.18894478 85.7837613,5.29040623 85.8183032,5.46215663 C85.8256541,5.49777825 85.8256541,5.49777825 85.8337238,5.5351242 C85.8789589,5.74479779 85.8905511,5.85493355 85.8612663,6.02407583 C85.820666,6.16667228 85.8070345,6.33326717 85.80568,6.6065977 C85.8055002,6.66100615 85.8055002,6.66100615 85.8055,6.71575 C85.8055,7.11168868 85.7948452,7.27333036 85.7363409,7.44931874 L85.6047363,7.55161528 C85.2676407,7.57580501 85.0467396,7.4434645 84.9491654,7.17970723 C84.8825265,6.99957269 84.8757199,6.81043049 84.8969703,6.43982366 C84.8983355,6.41617124 84.8983355,6.41617124 84.8997127,6.39264393 C84.9181235,6.07821707 84.9183462,5.95037657 84.8886965,5.81243865 C84.6844796,3.70072517 83.9169521,2.19518117 82.5226426,1.49632807 C81.9204999,1.29597481 81.1162441,1.36750926 80.8602769,1.648511 C80.7067368,2.10830343 80.6406787,2.73003901 80.636582,3.54357456 C80.6349158,3.87445114 80.6418898,4.17772894 80.6595988,4.69287002 C80.6793183,5.26649311 80.683,5.39578618 80.6752254,5.66066474 C80.6352697,5.7798874 80.6312343,5.86380873 80.6504878,5.98542287 C80.6572643,6.02596006 80.6572643,6.02596006 80.6653146,6.07028534 C80.6994568,6.25978934 80.7072213,6.38094149 80.683,6.539 L80.6752254,8.21933526 C80.6943932,8.2765295 80.699735,8.32571012 80.7060329,8.44268471 C80.7084689,8.48835068 80.7084689,8.48835068 80.7115775,8.53207675 C80.7265013,8.71730627 80.7533914,8.75393466 80.8404859,8.74764754 C82.0389358,8.19818945 82.42,6.99248002 82.42,4.749 C82.42,4.38360948 82.6545207,4.21929321 83.0887895,4.29206258 L83.2119374,4.41521049 L83.2742664,4.83273911 C83.2291688,5.12679025 83.2305926,5.38181088 83.2628803,5.99892346 C83.2726106,6.18489781 83.276899,6.27462298 83.2806605,6.38228239 C83.2965212,6.83624056 83.2796311,7.17509586 83.214,7.464 C83.214,8.22961118 83.2158641,8.61749308 83.2245598,9.08936125 C83.2339112,9.59681467 83.2502923,10.0374358 83.2757482,10.4346871 C83.2140835,11.4976688 83.2140835,12.5633312 83.276,13.635 C83.276,13.9642654 83.0854251,14.156 82.756,14.156 L82.6582729,14.1197955 C82.3992537,13.8973508 82.3501434,13.5922562 82.3605199,12.906064 C82.3609027,12.8811675 82.3609027,12.8811675 82.3612968,12.8563574 C82.3682369,12.4196417 82.3588194,12.2407997 82.3009783,12.0653172 C82.2430206,11.8164794 82.213863,11.6927098 82.1821374,11.5656622 C81.8944372,10.4135427 81.539553,9.83914344 80.8102966,9.66045792 Z M96.0388245,13.356 C96.0538315,13.3348825 96.0685442,13.3135405 96.083,13.2919128 L96.083,13.288 L95.96,13.206 L95.96,13.356 L96.0388245,13.356 Z M91.3341233,1.44307264 C91.2722774,1.50513867 91.2405154,1.53776425 91.2034988,1.57739574 C90.9609092,1.83712236 90.864,2.03622705 90.864,2.344 L90.8562254,8.28233526 C90.9139241,8.45450051 90.9435633,8.489 90.9853496,8.49380203 C92.0307666,8.22272153 92.3354848,7.46796043 92.5500937,5.45266239 C92.5545194,5.41106121 92.5545194,5.41106121 92.5589399,5.36943376 C92.6060905,4.92546453 92.6296408,4.723713 92.6794046,4.43778772 C92.7921298,4.20864134 93.2243017,4.20864134 93.4124946,4.39836427 L93.456,4.504 L93.456,6.97730073 C93.4929037,7.02549279 93.5118644,7.07431438 93.5115521,7.13163335 C93.511286,7.18046434 93.4952508,7.22781499 93.4758608,7.27438395 C93.4626594,7.31338949 93.456,7.35052845 93.4523471,7.37109822 C93.4931851,7.55274547 93.5112181,7.729194 93.5138574,7.93184086 C93.5152202,8.03647447 93.5134938,8.1122702 93.5068069,8.31099279 C93.4954115,8.64964798 93.4959949,8.82317409 93.518,9.071 L93.5150626,10.7665396 C93.4480844,11.0999905 93.4355445,11.4245737 93.4455404,12.0678133 C93.446071,12.10165 93.446071,12.10165 93.446612,12.1355234 C93.4600683,12.9780352 93.4420637,13.3371869 93.288066,13.806066 C93.0818031,14.0123289 92.7045101,13.9082673 92.6005611,13.5879626 C92.5898994,13.4650495 92.5804399,13.3438819 92.566076,13.1505651 C92.5261639,12.6134051 92.514391,12.4673823 92.4873866,12.210461 C92.3473847,10.8784782 92.0537014,10.0487453 91.409934,9.54606602 C91.3490629,9.48519491 91.1056719,9.47919462 90.9638662,9.54171633 L90.863,9.874 L90.863,13.8166508 L90.9247055,13.8746055 C90.9405487,14.1270746 90.9316406,14.3376975 90.8927887,14.8940392 C90.8824257,15.0424315 90.8769505,15.1245858 90.8716338,15.2154178 C90.8154695,16.1749473 90.9014773,16.6965867 91.213082,16.9608359 C91.6671975,17.1878936 92.3112341,17.2523234 92.8894977,17.1360681 C93.7911367,16.8490319 94.2184032,16.225819 94.7866366,14.7354182 C94.8225002,14.6411738 94.8225002,14.6411738 94.8583217,14.5468257 C94.9275666,14.3645865 94.9704181,14.2534437 95.0104786,14.2293803 C94.9427148,13.9583249 94.968385,13.7641742 95.089019,13.2819677 C95.1645962,12.9798653 95.192,12.828618 95.1922901,12.6406763 L95.3152901,10.6656763 L95.3597928,10.5680821 C95.5531833,10.3777858 95.7489103,10.3349157 96.005066,10.507934 L96.128066,10.630934 L96.1690626,10.7665396 C96.120514,11.0082385 96.1207343,11.2547148 96.1527148,11.7762251 C96.1537443,11.7929945 96.1537443,11.7929945 96.1547771,11.8097809 C96.1906403,12.3926395 96.1885283,12.7941183 96.1064625,13.0798657 L96.2329782,13.2085555 L96.1662663,16.8270758 C96.1397021,16.9203746 96.1352364,17.03171 96.1448799,17.2218714 C96.1465535,17.2539289 96.1465535,17.2539289 96.1483465,17.2863535 C96.1792199,17.8440939 96.1206951,18.0712554 95.7307486,18.1669463 C95.2516004,18.2240421 94.7685149,18.2460219 94.1699632,18.245875 C93.9579257,18.2458229 93.7919315,18.2438835 93.4049734,18.2379201 C93.0221944,18.232021 92.8457122,18.23 92.6176763,18.2297099 C91.4903805,18.1595037 90.4612972,18.1447826 88.7772659,18.1568102 C88.5430252,18.158552 88.5430252,18.158552 88.3085923,18.1604323 C87.6022236,18.1660965 87.2846048,18.168 86.8400281,18.1604558 C86.5470387,18.0638484 86.5134646,17.5624034 86.7774124,17.3207488 C86.9344299,17.2682213 87.0667427,17.2433331 87.3638153,17.2007172 C87.3810413,17.1982463 87.3810413,17.1982463 87.3982125,17.1957774 C87.9589079,17.1150565 88.1905711,17.0267016 88.3988646,16.7276316 C88.6488702,16.5330327 88.7073635,16.1449405 88.6681229,15.3316302 C88.6646533,15.2612581 88.6646533,15.2612581 88.66102,15.1907364 C88.6384733,14.7535793 88.6342719,14.5749219 88.6501563,14.3701538 C88.672651,13.8778112 88.6667196,13.4238342 88.6359996,12.4321468 C88.635503,12.4161192 88.635503,12.4161192 88.6350062,12.4000902 C88.5948833,11.1056168 88.5929554,10.5613141 88.6500233,9.99864314 L88.588,6.478 L88.5976208,2.14885532 C88.4017335,1.62859538 88.0510982,1.32 87.565,1.32 C87.5110852,1.32029992 87.5110852,1.32029992 87.4548713,1.32122754 C87.4547795,1.32122906 87.4547795,1.32122906 87.4546877,1.32123058 C87.1742602,1.32586676 87.0606108,1.31760641 86.9365866,1.25896405 C86.740606,1.16629855 86.6731912,0.971862983 86.7409771,0.699680934 C86.8045919,0.458923132 87.8037846,0.418249635 90.6838371,0.400154411 C91.5474431,0.394728418 92.4096073,0.395288605 93.4723717,0.399649109 C94.0374799,0.402163512 94.2368128,0.403 94.357,0.403 L94.4340518,0.42430262 C94.5055528,0.467110665 94.6305283,0.474569426 94.9433981,0.46172696 C94.9676092,0.460733752 94.9676092,0.460733752 94.9920175,0.459762266 C95.4945737,0.440054104 95.7231312,0.482176166 95.864,0.8 C95.864,1.43582496 95.8675627,1.94880002 95.8775488,2.99946328 C95.8845632,3.73747516 95.8869981,4.02273607 95.8890803,4.41036817 C95.8949686,5.50657696 95.8884476,6.39152322 95.8562254,7.32766474 C95.7584686,7.61935865 95.3191468,7.65327888 95.113934,7.44806602 L95.0707773,7.35725084 C95.0461606,7.11638688 95.0273859,6.90622741 94.9917777,6.48605098 C94.9725404,6.25877682 94.9636653,6.15496102 94.9527482,6.03136717 C94.7037352,3.21226258 94.2244839,1.94190483 92.7613938,1.37247273 C92.5759478,1.30302431 92.3708294,1.29767219 92.0754792,1.34029382 C92.0136954,1.34920975 91.9602885,1.35800281 91.8529959,1.37645851 C91.5951927,1.42080396 91.4677558,1.43898913 91.3341233,1.44307264 Z M125.897025,2.26269364 C126.458753,3.04273899 126.720924,3.85142641 127.140743,5.71690654 C127.178949,5.88678816 127.178949,5.88678816 127.217365,6.0566283 C127.261948,6.25305326 127.299064,6.41296657 127.338659,6.58098732 C127.801152,10.0165001 127.401039,13.6688043 126.211673,15.9289845 C125.742641,16.8181531 125.041108,17.5633759 124.140565,18.102475 C123.157704,18.3495186 122.131107,18.2942997 121.656399,17.8213503 C119.494898,15.8312221 118.697872,12.8000778 118.770161,8.19905568 C118.899908,5.39947466 119.765264,2.88592041 121.277987,1.1311235 C121.918555,0.42618655 123.135788,0.197666252 124.250166,0.553218138 C124.984821,1.06878633 125.549337,1.6321009 125.897025,2.26269364 Z M102.404994,1.78731584 L102.403499,16.700835 C102.450759,17.0324204 102.65265,17.113082 103.284548,17.140857 C103.297452,17.1414228 103.297452,17.1414228 103.310388,17.1419872 C103.802374,17.1634538 104.001856,17.1965281 104.19665,17.3417381 L104.254069,17.4324911 C104.329487,17.8083682 104.171086,18.0797037 103.815278,18.1660016 C103.090644,18.2500302 102.514055,18.2456315 101.22047,18.1824989 C100.108741,18.1282417 99.6137939,18.1194916 99.0017097,18.1660842 C98.7585067,18.2040319 98.5840363,18.0815427 98.5309613,17.8688109 C98.4910448,17.7088203 98.5258414,17.5108849 98.6128829,17.3792612 L98.7056554,17.3155288 C98.8047046,17.2936561 98.9017134,17.2777192 99.0546369,17.2563029 C99.0844242,17.2521472 99.0844242,17.2521472 99.114016,17.248047 C99.718896,17.1642005 99.9215905,17.0788746 100.008006,16.8436763 L100.069,9.933 L100.093883,1.86973875 C99.930879,1.62324508 99.8479403,1.54017159 99.7436384,1.50407436 C99.109723,1.57482639 98.8579073,1.9214212 98.5838526,2.828782 C98.5650013,2.89143096 98.5650013,2.89143096 98.546176,2.95432469 C98.4756796,3.18958118 98.4361836,3.31240888 98.393392,3.41390485 L97.8993471,6.75790178 C97.869592,6.89025267 97.8608778,7.04185405 97.8659973,7.25242177 C97.8672466,7.30380269 97.8687175,7.34424162 97.8724753,7.43694685 C97.8962225,8.02047081 97.8712738,8.2375 97.672894,8.43523778 L97.5422755,8.4769483 L97.1712755,8.4149483 L97.0460234,8.26964716 L96.985,4.811 C96.985,4.55528535 96.9832453,4.35957659 96.9771971,3.83484831 C96.9715334,3.34348302 96.9694273,3.09599348 96.969375,2.80552701 C96.9692271,1.98430818 96.9910093,1.34423779 97.0467396,0.785122346 L97.1087875,0.677959115 C97.4967635,0.400704816 102.741193,0.445013709 105.16485,0.588261311 L105.280911,0.65495085 L105.428987,0.921043096 L105.487131,5.70884853 C105.41174,6.03432527 105.395338,6.36815334 105.405788,6.96511233 C105.40694,7.02879566 105.40694,7.02879566 105.408168,7.09260978 C105.420033,7.70900109 105.414561,7.97484535 105.32378,8.37335152 C105.143989,8.55217582 104.965457,8.52866349 104.747898,8.39435553 C104.691179,8.35855071 104.67264,8.34709001 104.656483,8.33894557 L104.574283,8.21420879 L104.390201,5.20660454 C104.050074,3.24326549 103.78426,2.38096674 103.136934,1.58406602 C103.013401,1.46053254 102.694383,1.46053254 102.608852,1.58428008 L102.404994,1.78731584 Z M118.469582,0.526451136 C118.889888,0.451557965 119.065379,0.879831088 118.859117,1.19173875 L118.763326,1.25610541 C118.64897,1.27890239 118.57867,1.29064496 118.349905,1.32685167 C117.709112,1.42827028 117.454231,1.51552675 117.266414,1.72414473 C117.078027,2.15455718 117.061928,2.58859608 117.14063,3.48727191 C117.143888,3.52438937 117.143888,3.52438937 117.147168,3.56156207 C117.213295,4.31107181 117.222046,4.63562705 117.148302,4.94956584 C117.183945,5.05649194 117.181597,5.1360333 117.155248,5.39824741 C117.144769,5.50253877 117.140145,5.56103079 117.138564,5.62401086 C117.136562,5.70374237 117.141031,5.77168855 117.155554,5.84943849 C117.178506,6.14633248 117.186206,6.47204401 117.182778,6.86439042 C117.181101,7.05639225 117.177675,7.22333797 117.169731,7.54221726 C117.159016,7.97232571 117.156,8.12670307 117.156,8.329 L117.149712,15.284974 C116.656384,16.9347503 116.014758,17.8817214 114.882658,18.1624518 C113.753206,18.447103 112.89103,18.0864874 112.130518,17.2391599 C111.12088,15.7751854 110.761004,14.6389809 111.253786,13.3293994 C111.521564,12.7230894 112.000228,12.3810679 112.738669,12.3235506 L112.741475,12.3246354 C112.834329,12.3611049 112.890169,12.3830095 112.932769,12.4002986 C113.313236,12.5547109 113.524371,12.7022726 113.638073,13.0356532 C113.627971,13.1260836 113.630298,13.2251459 113.643645,13.3421919 C113.652324,13.4182966 113.663048,13.4861481 113.685825,13.6166193 C113.786536,14.1935081 113.777445,14.4236873 113.575869,14.5803827 C113.545161,14.8290688 113.43433,14.9554881 113.153977,15.161646 C113.151008,15.1638287 113.151008,15.1638287 113.148049,15.1660049 C112.905872,15.3440917 112.837,15.4309754 112.836476,15.5984763 C112.898439,16.3380294 113.206676,16.8660959 113.707456,17.0695533 C114.125409,17.1621808 114.367668,17.0512 114.705425,16.7344372 C114.90558,16.1626978 114.970196,15.4044877 114.948765,14.3273705 C114.943596,14.0675685 114.935381,13.8342185 114.918,13.4121258 C114.890282,12.7389785 114.883,12.5169238 114.883023,12.2134019 L114.945,8.637 L114.952891,2.32800989 C114.799284,1.87333492 114.680346,1.64647851 114.44188,1.40715641 C114.349908,1.33038809 114.20782,1.31152279 113.899092,1.32213524 C113.880137,1.32279562 113.880137,1.32279562 113.86106,1.32347857 C113.316407,1.34298287 113.097388,1.29294602 112.977621,0.97485532 L112.983981,0.854628347 L113.169981,0.484628347 L113.304078,0.40200002 C113.99023,0.402358699 114.509565,0.420383563 115.543766,0.470526838 C115.724514,0.479301093 115.724514,0.479301093 115.90466,0.487896353 C116.97439,0.538427781 117.658457,0.552413526 118.469582,0.526451136 Z M131.969191,0.58743882 C132.35112,0.412777204 132.854692,0.446295236 133.075937,0.837210487 C133.144853,1.24848042 132.969568,1.39222449 132.496,1.506 C132.230364,1.506 132.065781,1.58821739 131.763088,1.80068013 C131.574831,2.12861132 131.535,2.49544354 131.535,3.393 L131.535,10.429 L131.491925,10.5342002 L131.478063,10.5482891 C131.524102,11.2648746 131.535311,11.8368526 131.535493,12.8555083 C131.5355,12.9111293 131.5355,12.9111293 131.5355,12.96675 C131.5355,14.135726 131.545737,14.6864821 131.592475,15.4524347 C131.781401,16.2040754 132.21124,16.8182372 132.776958,17.1316656 C133.369675,17.2651603 134.003458,17.1513638 134.323967,16.7861246 C134.794684,16.4565464 134.947849,16.0728584 135.123,15.118 L135.125063,8.97178951 L135.06101,8.57528772 L135.123927,3.12934683 C135.184189,2.58990378 135.056785,2.01593962 134.810711,1.65946122 C134.680843,1.55631825 134.48484,1.49432765 134.191954,1.45149405 C134.112391,1.43985825 134.102393,1.43865111 133.892699,1.41432932 C133.779338,1.40118085 133.710804,1.39223332 133.643275,1.3809483 L133.519521,1.21169056 L133.581521,0.779690565 L133.727157,0.651026938 L137.001,0.589 C137.25526,0.589 137.46,0.823124118 137.46,1.048 C137.46,1.31338928 137.292789,1.38590364 136.991027,1.39247729 C136.97155,1.39286523 136.97155,1.39286523 136.952716,1.39317122 C136.843962,1.39494283 136.797376,1.40175594 136.722509,1.44106877 C136.449125,1.49592246 136.226,1.70457469 136.223405,1.93977853 L136.04,2.899 L136.038979,15.2604685 C135.92087,16.2677618 135.359733,17.1754273 134.508743,17.8849148 C134.247211,18.1136228 133.894279,18.1996928 133.347014,18.2265445 C133.262843,18.2306743 133.200774,18.2327307 133.045416,18.2371098 C132.695455,18.2469741 132.548673,18.2571913 132.343445,18.2900595 C131.035623,18.0272233 129.957852,17.1115689 129.58375,15.9248641 C129.228667,15.1844688 129.125544,14.2679989 129.147656,12.8278045 C129.15064,12.6334689 129.154593,12.4691122 129.163638,12.1360515 C129.193027,11.0539815 129.191938,10.6204259 129.137,10.12 L129.144659,2.20631874 C129.031432,1.86571776 128.866143,1.6497918 128.614136,1.49620928 C128.550671,1.47074115 128.473008,1.45683956 128.3235,1.44061862 C128.307775,1.4389202 128.307775,1.4389202 128.291905,1.43721995 C127.839365,1.3887106 127.657,1.30846853 127.659052,1.01172451 C127.630973,0.843707368 127.677861,0.713676378 127.800664,0.643107287 C127.877694,0.598841972 127.941253,0.589502649 128.094866,0.581928233 C128.105068,0.581425461 128.105068,0.581425461 128.115062,0.580919405 C128.211623,0.575961926 128.257047,0.567690871 128.364472,0.528020374 L131.969191,0.58743882 Z M141.929084,0.649999909 C144.068427,0.367072812 145.804954,0.913538068 146.509193,2.32448858 C147.221543,3.46401808 147.49039,5.04422515 147.067779,6.36546376 C146.994126,6.49657954 146.92246,6.63178499 146.819761,6.83115862 C146.743368,6.97988922 146.69994,7.06445426 146.66587,7.13026932 C146.106765,8.2103157 145.685377,8.76341378 144.995818,9.09948601 C145.021642,9.26063439 145.124544,9.3772573 145.367212,9.56916145 C145.390063,9.58720782 145.390063,9.58720782 145.413282,9.60554147 C145.633507,9.77965948 145.741965,9.88542065 145.836055,10.050701 C145.831309,10.0412465 145.951407,10.2786933 145.984081,10.3449908 C146.236645,10.8574683 146.346,11.2257428 146.345886,11.7161436 L146.469,14.87 C146.468738,14.9486577 146.468738,14.9486577 146.467963,15.031625 C146.465724,15.2746728 146.466841,15.3975792 146.475553,15.5425507 C146.503588,16.0090158 146.609504,16.3059156 146.822591,16.4350074 C147.14676,16.2957141 147.24096,15.9555227 147.286563,15.1047152 C147.287356,15.0899002 147.287356,15.0899002 147.288149,15.0750685 C147.306122,14.7386954 147.317563,14.5908031 147.386075,14.3337998 C147.505703,14.212211 147.847343,14.212211 148.01061,14.4186304 C148.207392,15.8542903 147.862388,17.181787 146.995319,18.0317726 C146.913386,18.0671238 146.913386,18.0671238 146.826899,18.1039102 C146.480574,18.2498897 146.230703,18.3282474 145.971061,18.3516188 C145.768787,18.3698262 145.579746,18.3488727 145.456,18.292 C145.101734,18.292 144.93403,18.1343099 144.722204,17.7453295 C144.700238,17.7048632 144.700238,17.7048632 144.678563,17.6651465 C144.585941,17.496428 144.52081,17.4039516 144.433697,17.3310029 L144.380802,17.2314946 L144.194,15.425 L144.194445,11.8585472 C144.194278,11.8563811 144.194278,11.8563811 144.194111,11.8542144 C144.172808,11.5781505 144.166708,11.5038242 144.153469,11.3728836 C144.070877,10.5560252 143.898843,10.0759331 143.506273,9.80079547 C143.110247,9.4606899 142.36486,9.356493 141.877117,9.52173875 L141.778211,9.64036722 C141.682235,10.5722645 141.663274,11.4626226 141.695878,12.6233089 C141.704189,12.9191972 141.711752,13.1279521 141.734041,13.7049715 C141.785453,15.0359506 141.799391,15.6933998 141.777013,16.5126637 C141.799762,16.6510231 141.803746,16.6743851 141.81537,16.7330755 C141.885759,17.0884857 141.999013,17.2826056 142.208336,17.3769874 C142.323758,17.395965 142.401771,17.4020613 142.572563,17.4093105 C142.585782,17.4098718 142.585782,17.4098718 142.599079,17.4104454 C142.841725,17.4209914 142.990674,17.4405571 143.212988,17.5037087 L143.306382,17.5813553 C143.346249,17.6617423 143.3525,17.7234366 143.3525,17.87175 C143.3525,17.9842599 143.356398,18.0336339 143.373526,18.088989 C143.374473,18.0920161 143.374473,18.0920161 143.375456,18.0950281 L143.439144,18.2881818 L143.235797,18.2919739 L139.951711,18.3526467 L138.162711,18.2296467 L138.066934,18.186066 C137.878931,17.9980626 137.878931,17.5662515 138.173,17.436 C138.671605,17.436 139.071272,17.2796489 139.326384,17.0507057 L139.506,16.477 L139.513891,2.32900989 C139.512849,2.32592405 139.512849,2.32592405 139.511812,2.32284092 C139.494902,2.27251448 139.480806,2.22794684 139.452408,2.13665373 C139.329222,1.74255142 139.243297,1.59456903 139.043136,1.49420928 C138.982868,1.47002401 138.906713,1.45944384 138.760436,1.45139298 C138.744862,1.45054522 138.744862,1.45054522 138.729115,1.44970624 C138.277428,1.42562883 138.086,1.34141466 138.098227,0.925681247 C138.225045,0.63113607 138.385563,0.587831101 138.749942,0.630326259 C138.948795,0.653517216 139.046955,0.649900942 139.232021,0.588335093 C139.564148,0.610572546 139.881997,0.625466127 140.214699,0.634886576 C140.663981,0.647607995 141.01322,0.649983029 141.929084,0.649999909 Z M154.940007,10.8919984 C154.951553,10.8587694 154.969297,10.8275465 154.994039,10.7984132 C154.97842,10.43761 154.975495,10.0711267 154.980712,9.57619658 C154.981787,9.47421966 154.982841,9.39234992 154.985346,9.20865191 C155.000201,8.11894739 154.993483,7.62446515 154.93703,6.94740501 C154.982037,6.67663377 154.995891,6.42481089 154.991549,6.09138234 C154.990541,6.01402099 154.989104,5.9513365 154.985383,5.80866869 C154.97498,5.40825881 154.974728,5.19345922 154.992212,4.9345796 C154.938905,4.86873543 154.923421,4.78792548 154.943078,4.70331842 C154.950663,4.67067332 154.96053,4.64489014 154.978642,4.60412961 C154.985841,4.58792768 154.990372,4.57720265 154.993078,4.57163884 L154.937025,4.47843731 C154.998324,4.10914702 154.98959,3.74642069 154.925515,2.88488414 C154.886154,2.35565486 154.873,2.12421894 154.900997,1.93626585 C154.655068,1.59244226 154.20806,1.443 153.543,1.443 L153.393,1.293 C153.393,1.29716424 153.391894,1.29095909 153.379828,1.22400392 C153.368517,1.15873688 153.362302,1.10329852 153.36225,1.04678789 C153.362072,0.85305007 153.440987,0.701253048 153.666,0.65 L157.282659,0.654548452 C157.54082,0.719613486 157.577818,0.875887228 157.533006,1.16743152 C157.532819,1.16864613 157.532819,1.16864613 157.532633,1.16985715 C157.522293,1.23710572 157.519,1.26507755 157.519,1.293 L157.436517,1.42694557 C157.30885,1.49129836 157.19784,1.52245835 156.946309,1.5771124 C156.938362,1.57883895 156.938362,1.57883895 156.930439,1.58056141 C156.564443,1.66015612 156.420746,1.72139599 156.336178,1.84294187 L156.098975,2.40674481 L156.038,5.737 L156.036832,16.3096794 C156.01598,16.4758289 156.015315,16.638391 156.026277,17.0442047 C156.028128,17.1128177 156.028128,17.1128177 156.029833,17.1819682 C156.040259,17.6246168 156.02866,17.8868978 155.932066,18.186066 C155.745294,18.3728376 155.346,18.4306059 155.152471,18.233929 C154.95546,17.9799116 154.868307,17.7352706 154.72475,17.1622101 C154.724373,17.1607048 154.724373,17.1607048 154.723996,17.1591997 C154.590214,16.6251539 154.512124,16.4058926 154.329065,16.1615415 C154.070007,15.5249777 153.868664,14.9094229 153.548038,13.828342 C153.505438,13.6845435 153.505438,13.6845435 153.462969,13.5409453 C153.08133,12.2509291 152.884003,11.6473427 152.597451,10.9706368 L151.361256,7.44486701 C151.285658,7.19136932 151.197555,6.97534846 151.029592,6.60814381 C150.967248,6.47228569 150.936062,6.40410671 150.905498,6.33595889 C150.863391,6.24207427 150.82678,6.15740946 150.794228,6.07777021 C150.675311,6.66669091 150.678445,7.20679632 150.791974,7.8987898 L150.73,11.229 L150.719053,16.6647487 C150.72105,16.6696843 150.72105,16.6696843 150.723043,16.6746127 C150.895444,17.1008125 150.996272,17.2642114 151.214358,17.3954863 C151.27339,17.43102 151.368396,17.4378827 151.587412,17.4268368 C151.592787,17.4265654 151.592787,17.4265654 151.598179,17.4262924 C151.838519,17.414124 151.938378,17.4169842 152.054613,17.4574137 C152.235842,17.52045 152.336,17.6697749 152.331521,17.9293803 L152.269521,18.1773803 L152.126648,18.2909766 L148.633173,18.3476585 C148.602098,18.3400153 148.576705,18.3347038 148.513988,18.3223131 C148.513816,18.322279 148.513816,18.322279 148.513643,18.3222448 C148.125266,18.245616 147.962,18.1484136 147.977945,17.765701 C148.110964,17.5007344 148.31266,17.4461108 148.820621,17.4233724 C148.848402,17.4221296 148.848402,17.4221296 148.875945,17.4208502 C149.282285,17.4016155 149.441861,17.3455608 149.520945,17.148701 C149.711288,16.7695501 149.75296,16.3536492 149.753,15.3856325 C149.753,15.3748182 149.753,15.3748182 149.753006,15.3653102 L149.691,8.266 L149.692497,2.36314101 C149.620772,1.85931385 149.318634,1.66267064 148.558714,1.47956854 C148.489164,1.46293817 148.489164,1.46293817 148.419246,1.44641552 C148.288867,1.41554913 148.214752,1.39726712 148.092261,1.35611714 C147.948331,1.26093767 147.915777,1.12406905 147.961614,0.971769897 C147.970006,0.943887767 147.978174,0.922300827 147.994908,0.881359547 C148.018696,0.823425292 148.025,0.804376219 148.025,0.799 L148.155186,0.650314408 C148.741954,0.572121028 149.201661,0.562720096 150.279956,0.58020684 C150.636274,0.585985273 150.804118,0.588 151.01,0.588 L151.115639,0.631508874 C151.140059,0.655733016 151.173854,0.679014611 151.242005,0.71979185 C151.258011,0.729346313 151.258011,0.729346313 151.274629,0.739267771 C151.45292,0.845970675 151.538808,0.921338849 151.585265,1.0585599 C151.939175,2.04973636 152.253737,3.00053731 152.747844,4.546672 C152.83442,4.81775354 152.83442,4.81775354 152.920866,5.08872364 C153.828068,7.9321293 154.324014,9.39087846 154.940007,10.8919984 Z M162.89067,13.7806092 C161.855238,13.7198433 160.803136,13.7357744 160.041506,13.8379895 C159.885293,14.0605427 159.817795,14.361475 159.737905,15.0179839 C159.714073,15.1590671 159.708202,15.1844614 159.611061,15.5861005 C159.556532,15.811551 159.524959,15.9570713 159.500788,16.1064537 C159.406879,16.6868364 159.485431,17.0769572 159.819066,17.355934 C159.869568,17.4064361 159.994316,17.4233031 160.277613,17.4193019 C160.28852,17.4191461 160.28852,17.4191461 160.299471,17.4189861 C160.636338,17.4140639 160.764516,17.4252093 160.89554,17.5065087 C161.101275,17.6341651 161.114919,17.8732064 160.959935,18.2054167 L160.851751,18.2894105 C160.395497,18.3753045 159.88468,18.4144495 159.252083,18.4232355 C158.981642,18.4269917 158.757796,18.4257823 158.292155,18.4201263 C157.968132,18.4161906 157.840677,18.415 157.620525,18.4043646 C157.566267,18.382767 157.49671,18.375644 157.327846,18.3706178 C157.327744,18.3706148 157.327744,18.3706148 157.327643,18.3706118 C157.077596,18.3631692 156.976583,18.3498518 156.866348,18.2827046 C156.695895,18.1788767 156.652257,17.9877414 156.723,17.771 C156.723,17.4606329 156.922313,17.3931867 157.306534,17.4080808 C157.326739,17.408888 157.326739,17.408888 157.346555,17.409729 C157.507371,17.4165616 157.574298,17.4124228 157.603033,17.3939433 C158.053115,17.1433571 158.316477,16.7000838 158.454279,16.0789543 L159.194233,11.8822166 L160.120387,6.57434826 L160.677876,3.48676593 C160.703245,3.3590956 160.726439,3.23541192 160.763589,3.03216575 C160.795796,2.85556075 160.811434,2.77024001 160.828806,2.6774855 C161.003088,1.74695625 161.159711,1.19881672 161.435382,0.725506489 L161.576547,0.65144512 L162.379547,0.71344512 L162.514374,0.830219514 L163.191374,3.85321951 L163.193479,3.86469056 C163.282487,4.4848782 163.392236,5.01016156 163.626532,6.00871648 C163.640593,6.06862451 163.640593,6.06862451 163.65467,6.12856427 C163.971455,7.47749937 164.096974,8.10637422 164.179603,8.91425796 L165.285648,14.0248124 C165.368025,14.29881 165.419212,14.5322751 165.519832,15.0518905 C165.52516,15.0794064 165.52516,15.0794064 165.530488,15.1068999 C165.799131,16.4927845 166.036615,17.0465491 166.653051,17.3778401 C166.695956,17.3859832 166.695956,17.3859832 166.74141,17.393867 C166.747062,17.3948427 166.747062,17.3948427 166.752743,17.3958225 C166.991547,17.4370126 167.089208,17.4654188 167.188147,17.5523965 C167.333672,17.6803278 167.354224,17.8755363 167.251946,18.1475173 L167.189946,18.2705173 L167.062543,18.3528572 C164.914402,18.4466493 163.468256,18.4470793 162.223321,18.2908324 L162.100742,18.1924608 C161.984391,17.8667527 162.025217,17.6306375 162.227042,17.4958676 C162.361095,17.406353 162.493739,17.3836254 162.820957,17.3613876 C162.821864,17.361326 162.821864,17.361326 162.82277,17.3612644 C163.090386,17.343078 163.19863,17.3246355 163.259111,17.2850176 C163.493349,17.0970206 163.576854,16.6939016 163.515367,16.1366034 C163.483524,15.9888603 163.459441,15.8696976 163.406319,15.6010001 C163.21411,14.6287787 163.100288,14.1906216 162.89067,13.7806092 Z M176.341642,17.2153583 C176.342547,17.2568893 176.344571,17.3095425 176.348686,17.4096273 C176.354241,17.5447337 176.356534,17.6217502 176.356624,17.7080974 C176.356889,17.9644595 176.333101,18.1608745 176.269303,18.3206306 L176.185475,18.4043646 C176.045774,18.4599737 175.884818,18.4763915 175.663099,18.4715168 C175.614658,18.4704518 175.576691,18.468957 175.493728,18.4651741 C175.268474,18.4548311 175.185142,18.4554435 175.033566,18.4693025 L174.897791,18.414974 L171.555838,18.4768289 C171.273563,18.4633354 170.978925,18.4606603 170.580639,18.4651788 C170.487352,18.4662371 170.413167,18.4673004 170.245599,18.4698712 C168.912183,18.4903474 168.35819,18.4626801 167.729483,18.2749456 C167.527309,18.1730371 167.498086,17.8477433 167.652328,17.5845048 C167.804661,17.4821239 167.949468,17.4576604 168.298494,17.4387505 C168.315373,17.4378362 168.315373,17.4378362 168.332148,17.4369158 C168.741242,17.4143206 168.886443,17.3603286 168.943728,17.2002421 L169.004,16.598 L169.019879,2.10216898 C168.79166,1.64646842 168.35926,1.506 167.55,1.506 L167.4,1.356 C167.4,1.3124755 167.396117,1.2713792 167.385889,1.19308752 C167.3431,0.86555981 167.37512,0.720321644 167.673,0.651 L172.276,0.651 L172.276,0.607504434 L172.462659,0.654548452 C172.464138,0.654921209 172.464138,0.654921209 172.465619,0.65529442 C172.467089,0.655664877 172.467089,0.655664877 172.46856,0.656035813 C172.894684,0.763425687 173.07,0.881475531 173.064266,1.27307583 C172.979267,1.57161178 172.776968,1.63817704 172.262283,1.67714557 C172.261691,1.67719038 172.261691,1.67719038 172.2611,1.67723519 C171.969764,1.69929287 171.853745,1.72199395 171.745049,1.80188826 C171.555621,1.88300931 171.461928,2.0515961 171.379672,2.39755136 C171.363171,2.46856108 171.363171,2.46856108 171.34703,2.54061463 C171.31724,2.67288305 171.298648,2.74619191 171.281,2.775 L171.268773,16.5963188 C171.159988,16.84898 171.244118,17.0453686 171.523023,17.3344677 C171.564631,17.3771811 171.564631,17.3771811 171.579546,17.3978292 C171.979469,17.6479833 172.994926,17.6473742 173.643431,17.4588437 C174.235739,17.0882004 174.501062,16.5944817 174.907056,15.3714219 C174.943994,15.2600396 174.943994,15.2600396 174.981371,15.1480221 C175.060503,14.911818 175.12165,14.7389073 175.178341,14.6049873 L175.624622,11.3493483 C175.736978,11.1228233 176.087024,11.1228233 176.336979,11.2917117 L176.403,11.416 L176.403,17.154 L176.341642,17.2153583 Z"></path>
                </g>
                <path d="M124.658,2.405 L124.781,3.577 L124.781,7.465 L124.843,7.527 L124.781,15.551 C124.658,16.168 124.349,16.6 124.041,17.094 C123.609,17.463 122.869,17.403 122.437,17.155 C121.511,16.538 121.326,15.366 121.388,14.317 C121.326,13.452 121.634,12.712 121.388,11.909 C121.449,10.983 121.388,9.934 121.511,8.947 C121.388,8.885 121.511,8.515 121.388,8.453 C121.634,8.144 121.326,7.959 121.388,7.651 C121.449,6.108 121.388,4.936 121.388,3.146 C121.634,2.344 122.005,1.418 122.868,1.233 C123.795,1.17 124.289,1.726 124.658,2.405 Z M71.893,1.355 C73.621,2.404 72.942,5.058 72.88,7.033 C72.756,7.588 72.448,8.02 72.016,8.391 C71.522,8.7 70.473,8.638 69.979,8.453 L69.917,2.158 C69.979,1.726 70.164,1.294 70.719,1.294 C71.09,1.17 71.46,1.355 71.893,1.355 Z M144.654,2.343 C144.84,2.775 144.84,3.392 144.9,3.824 L144.839,7.095 C144.653,7.712 144.468,8.267 143.913,8.514 C143.419,8.7 142.308,8.7 141.69,8.514 C141.629,6.169 141.629,4.379 141.629,2.035 C141.69,1.726 141.938,1.418 142.307,1.294 C143.482,1.047 144.1,1.664 144.654,2.343 Z M161.502,5.984 C161.873,8.329 162.613,10.428 162.922,12.834 L162.799,12.959 L160.33,13.02 L160.021,12.834 C160.082,12.156 160.207,11.416 160.39,10.674 L160.884,7.403 C161.007,6.909 161.07,6.354 161.255,5.922 L161.502,5.984 Z M19.065,9.256 L19.682,12.588 C19.25,13.082 18.386,12.588 17.707,12.774 L17.213,12.712 L17.275,11.909 L17.831,8.392 L18.263,6.108 L18.387,6.17 L19.065,9.256 Z" id="Shape" fill="#FFFFFF"></path>
            </g>
        </g>
    </g>
</svg>