<svg xmlns="http://www.w3.org/2000/svg" width="100" height="100" viewBox="0 0 100 100">
    <path fill="none" fill-rule="evenodd" stroke="#666" stroke-linecap="round" stroke-linejoin="round" stroke-width="3" d="M75.29 56.974c3.859.788 6.986 4.446 6.986 8.384v4.192c0 3.054-2.535 5.589-5.59 5.589h-8.383c-3.052 0-5.59-2.535-5.59-5.59v-2.794a128.631 128.631 0 0 0-25.15 0v2.795c0 3.054-2.536 5.589-5.59 5.589h-8.384c-3.054 0-5.589-2.535-5.589-5.59v-4.191c0-3.938 3.127-7.596 6.986-8.384a125.697 125.697 0 0 1 50.303 0zM27.286 32.38c12.552-12.552 32.897-12.552 45.449 0M35.312 37.486c8.185-8.184 21.454-8.186 29.64 0M53.187 41.27a3.613 3.613 0 0 1 0 5.108 3.613 3.613 0 0 1-5.107 0 3.613 3.613 0 0 1 0-5.108 3.613 3.613 0 0 1 5.107 0z"/>
</svg>
